<?xml version="1.0" encoding="utf-8"?>
<!-- Generator: Adobe Illustrator 15.1.0, SVG Export Plug-In . SVG Version: 6.00 Build 0)  -->
<!DOCTYPE svg PUBLIC "-//W3C//DTD SVG 1.1//EN" "http://www.w3.org/Graphics/SVG/1.1/DTD/svg11.dtd">
<svg version="1.1" id="Layer_1" xmlns="http://www.w3.org/2000/svg" xmlns:xlink="http://www.w3.org/1999/xlink" x="0px" y="0px"
	 width="1400px" height="980px" viewBox="0 0 1400 980" enable-background="new 0 0 1400 980" xml:space="preserve">
<g>
	<g>
		<path d="M996.331,343.377c-0.002,0-0.002,0-0.002,0c-7.833,0-16.055-4.685-20.95-11.934c-2.67-3.955-4.057-8.241-4.094-12.397
			c-7.581-1.183-14.748-6.972-18.428-15.149c-3.785-8.413-2.799-17.099,2.639-23.236c7.59-8.569,22.566-10.923,34.466-11.31
			l46.854-40.538c2.095-11.721,6.576-26.207,16.148-32.484c3.221-2.114,6.813-3.186,10.674-3.186
			c7.831,0,16.053,4.685,20.946,11.933c2.672,3.957,4.058,8.243,4.095,12.398c7.581,1.183,14.751,6.975,18.431,15.151
			c3.784,8.411,2.799,17.097-2.64,23.234c-7.591,8.569-22.568,10.923-34.467,11.31l-46.855,40.538
			c-2.094,11.722-6.575,26.205-16.146,32.484C1003.781,342.306,1000.19,343.377,996.331,343.377z M977.233,308.902
			c1.431,0,2.816,0.617,3.778,1.727c1.227,1.417,1.557,3.4,0.855,5.138c-1.19,2.955-0.537,6.631,1.796,10.084
			c3.041,4.505,8.132,7.532,12.666,7.532h0.002c1.878,0,3.625-0.519,5.188-1.548c5.404-3.544,9.805-13.582,12.072-27.536
			c0.188-1.155,0.777-2.209,1.663-2.977l49.564-42.882c0.886-0.767,2.015-1.199,3.186-1.218c14.134-0.238,24.698-3.15,28.986-7.989
			c3.97-4.481,2.026-10.24,1.005-12.506c-2.822-6.27-9.023-10.494-14.081-9.25c-1.823,0.438-3.736-0.17-4.962-1.585
			c-1.226-1.417-1.556-3.4-0.854-5.138c1.19-2.955,0.536-6.632-1.796-10.085c-3.041-4.505-8.132-7.531-12.664-7.531
			c-1.88,0-3.627,0.521-5.19,1.548c-5.407,3.547-9.807,13.582-12.075,27.536c-0.188,1.156-0.776,2.21-1.663,2.977l-49.563,42.882
			c-0.887,0.767-2.015,1.198-3.186,1.218c-14.135,0.238-24.698,3.15-28.984,7.989c-3.971,4.482-2.026,10.24-1.006,12.508
			c2.82,6.266,9.015,10.486,14.08,9.248C976.442,308.949,976.841,308.902,977.233,308.902z"/>
		<path d="M1008.48,376.213c-6.331,0-12.101-2.525-15.962-7.296c-5.314-6.566-7.319-17.244-5.957-31.737
			c0.26-2.749,2.666-4.78,5.444-4.507c2.746,0.258,4.765,2.696,4.507,5.444c-1.079,11.467,0.262,20.173,3.775,24.512
			c3.618,4.472,9.727,4.156,14.237,2.368c4.79-1.897,9.764-6.363,9.371-11.688c-0.139-1.868,0.781-3.656,2.38-4.632
			c1.601-0.976,3.61-0.978,5.207,0c4.563,2.784,10.807,0.398,14.681-2.992c3.652-3.195,6.725-8.485,4.404-13.748
			c-2.61-5.917-11.788-11.907-25.177-16.438c-1.11-0.376-2.054-1.13-2.664-2.129l-5.188-8.499c-1.438-2.356-0.695-5.433,1.661-6.869
			c2.356-1.438,5.433-0.695,6.869,1.661l4.255,6.968c11.216,3.994,24.767,10.796,29.387,21.271
			c3.715,8.417,0.979,18.351-6.965,25.303c-5.951,5.211-13.256,7.47-19.775,6.438c-2.066,6.264-7.411,11.733-14.764,14.646
			C1014.938,375.583,1011.639,376.213,1008.48,376.213z"/>
		<path d="M961.598,286.794c-1.684,0-3.327-0.853-4.269-2.395l-2.576-4.222c-11.216-3.994-24.767-10.796-29.387-21.269
			c-3.715-8.418-0.98-18.35,6.965-25.303c5.947-5.21,13.249-7.46,19.772-6.44c2.067-6.264,7.412-11.731,14.767-14.645
			c9.818-3.891,19.9-1.778,25.688,5.37c7.207,8.903,7.063,24.062,5.485,35.861l6.514,10.669c1.438,2.356,0.695,5.431-1.661,6.869
			c-2.354,1.435-5.433,0.695-6.869-1.661l-7.446-12.2c-0.611-1.001-0.852-2.184-0.678-3.344c2.093-13.978,0.959-24.877-3.111-29.906
			c-3.619-4.472-9.729-4.154-14.241-2.368c-4.788,1.897-9.764,6.365-9.371,11.69c0.139,1.868-0.781,3.656-2.38,4.632
			c-1.601,0.976-3.611,0.976-5.208-0.002c-4.556-2.78-10.804-0.398-14.679,2.994c-3.651,3.195-6.724,8.485-4.403,13.748
			c2.61,5.915,11.786,11.905,25.179,16.438c1.108,0.377,2.051,1.13,2.662,2.131l3.51,5.75c1.438,2.354,0.692,5.431-1.661,6.867
			C963.384,286.558,962.486,286.794,961.598,286.794z"/>
		<path d="M1112.193,330.782c-7.486,0-14.148-2.833-18.354-7.529c-5.563,3.547-13.16,4.409-20.702,2.014
			c-10.063-3.193-16.541-11.2-16.506-20.397c0.037-11.442,9.732-23.104,18.41-31.255l1.823-13.279
			c0.375-2.735,2.892-4.662,5.63-4.271c2.734,0.375,4.646,2.895,4.271,5.629l-2.065,15.053c-0.157,1.16-0.72,2.227-1.586,3.016
			c-10.457,9.516-16.467,18.68-16.488,25.141c-0.021,5.752,4.911,9.37,9.535,10.837c4.907,1.554,11.589,1.242,14.651-3.135
			c1.073-1.532,2.896-2.331,4.772-2.084c1.856,0.253,3.414,1.526,4.034,3.293c1.771,5.036,8.128,7.14,13.264,6.96
			c4.851-0.168,10.578-2.323,12.106-7.872c1.716-6.231-1.608-16.674-9.122-28.649c-0.622-0.994-0.876-2.174-0.716-3.334l8.9-64.932
			c0.158-1.161,0.721-2.229,1.587-3.018c10.457-9.514,16.469-18.678,16.492-25.143c0.021-5.752-4.913-9.369-9.539-10.835
			c-4.905-1.558-11.589-1.239-14.646,3.133c-1.073,1.536-2.916,2.342-4.772,2.086c-1.856-0.254-3.414-1.524-4.037-3.293
			c-1.772-5.038-8.151-7.14-13.269-6.96c-4.849,0.169-10.574,2.325-12.101,7.87c-1.716,6.234,1.606,16.677,9.118,28.653
			c0.622,0.993,0.876,2.172,0.716,3.333l-1.534,11.189c-0.375,2.732-2.895,4.644-5.629,4.271c-2.735-0.375-4.646-2.895-4.271-5.629
			l1.29-9.412c-6.166-10.186-12.363-24.022-9.324-35.057c2.442-8.87,10.837-14.837,21.388-15.204
			c7.864-0.295,14.993,2.594,19.396,7.509c5.561-3.547,13.16-4.404,20.696-2.015c10.064,3.191,16.545,11.198,16.512,20.398
			c-0.043,11.446-9.736,23.105-18.415,31.256l-8.414,61.379c6.166,10.185,12.365,24.021,9.328,35.057
			c-2.446,8.874-10.844,14.841-21.396,15.206C1112.882,330.776,1112.536,330.782,1112.193,330.782z"/>
	</g>
	<g>
		<g>
			<path d="M775.035,284.323c-12.738,0-25.648-6.038-30.882-8.795c-10.836,0.654-21.218,0.974-31.692,0.974
				c-0.002,0-0.002,0-0.002,0c-10.485,0-20.88-0.32-31.729-0.976c-5.233,2.76-18.146,8.795-30.884,8.795
				c-3.494,0-6.74-0.465-9.646-1.384c-10.225-3.236-16.463-12.114-15.893-22.619c0.393-7.229,3.996-13.561,9.393-17.253
				c-2.778-4.917-3.287-11.054-1.216-17.287c3.438-10.343,12.561-17.105,22.613-16.371c11.724,0.857,23.472,11.356,30.412,17.88
				c17.825,1.622,36.002,1.622,53.87,0c6.938-6.523,18.688-17.023,30.409-17.88c10.053-0.74,19.174,6.028,22.611,16.373
				c2.071,6.232,1.563,12.368-1.214,17.285c5.396,3.693,9,10.025,9.391,17.255c0.57,10.505-5.669,19.383-15.893,22.617
				C781.775,283.856,778.529,284.323,775.035,284.323z M745.271,265.454c0.848,0,1.681,0.217,2.424,0.628
				c7.184,3.986,18.136,8.247,27.34,8.247c2.471,0,4.702-0.31,6.635-0.921c8.764-2.771,9.049-10.306,8.928-12.549
				c-0.254-4.688-3.002-9.922-8.571-11.041c-1.933-0.388-3.457-1.877-3.89-3.8c-0.434-1.924,0.305-3.923,1.884-5.102
				c5.111-3.818,3.509-10.139,2.895-11.983c-1.601-4.821-6.229-9.998-12.399-9.559c-8.91,0.652-20.132,11.261-25.525,16.359
				c-0.808,0.763-1.847,1.235-2.953,1.341c-19.604,1.896-39.633,1.896-59.189,0c-1.105-0.107-2.143-0.58-2.951-1.341
				c-5.394-5.099-16.615-15.708-25.528-16.359c-6.16-0.429-10.8,4.737-12.4,9.557c-0.613,1.845-2.218,8.165,2.895,11.985
				c1.581,1.179,2.319,3.178,1.886,5.102c-0.436,1.923-1.958,3.412-3.893,3.8c-5.567,1.119-8.315,6.35-8.569,11.041
				c-0.123,2.243,0.162,9.775,8.926,12.549c1.931,0.611,4.162,0.919,6.633,0.919c9.201,0,20.158-4.259,27.341-8.247
				c0.835-0.462,1.788-0.677,2.739-0.619c22.305,1.407,42.73,1.409,65.031,0.002C745.061,265.458,745.166,265.454,745.271,265.454z"
				/>
		</g>
		<g>
			<path d="M712.441,210.422c-65.72,0-132.252-12.93-132.252-37.643c0-24.714,66.532-37.646,132.252-37.646
				c65.723,0,132.255,12.932,132.255,37.646C844.696,197.493,778.164,210.422,712.441,210.422z M712.441,145.128
				c-74.63,0-122.258,16.377-122.258,27.651s47.627,27.649,122.258,27.649c74.633,0,122.261-16.375,122.261-27.649
				S787.074,145.128,712.441,145.128z"/>
			<path d="M712.441,194.934c-28.012,0-54.389-1.808-74.27-5.092c-30.675-5.065-34.61-11.78-34.61-17.062
				c0-5.284,3.935-11.997,34.61-17.064c19.881-3.283,46.257-5.093,74.27-5.093c28.013,0,54.39,1.81,74.271,5.093
				c30.676,5.067,34.608,11.78,34.608,17.064c0,5.282-3.933,11.997-34.608,17.062C766.831,193.126,740.454,194.934,712.441,194.934z
				 M614.271,172.779c6.383,4.575,39.216,12.161,98.171,12.161c58.955,0,91.789-7.585,98.172-12.161
				c-6.383-4.578-39.217-12.163-98.172-12.163C653.487,160.617,620.653,168.202,614.271,172.779z"/>
			<path d="M712.441,306.273c-69.12,0-142.582-16.664-142.582-47.545c0-1.017,0.096-2.06,0.295-3.178l10.07-83.37l9.922,1.199
				l-10.135,83.816c-0.105,0.578-0.158,1.08-0.158,1.533c0,17.763,54.452,37.551,132.588,37.551
				c78.137,0,132.588-19.789,132.588-37.551c0-0.453-0.051-0.955-0.157-1.533l-0.045-0.304l-10.09-83.512l9.922-1.199l10.071,83.37
				c0.197,1.119,0.293,2.161,0.293,3.178C855.023,289.609,781.563,306.273,712.441,306.273z"/>
		</g>
	</g>
	<g>
		<g>
			<path d="M393.651,225.3c-51.383,0-91.634-18.331-91.634-41.731s40.251-41.729,91.634-41.729
				c51.383,0,91.634,18.329,91.634,41.729S445.035,225.3,393.651,225.3z M393.651,151.834c-48.112,0-81.64,16.725-81.64,31.735
				c0,15.013,33.528,31.737,81.64,31.737s81.64-16.724,81.64-31.737C475.292,168.559,441.763,151.834,393.651,151.834z"/>
			<path d="M393.651,351.833c-51.383,0-91.634-18.331-91.634-41.731V183.569h9.994v126.533c0,15.013,33.528,31.737,81.64,31.737
				s81.64-16.724,81.64-31.737h9.994C485.286,333.502,445.035,351.833,393.651,351.833z"/>
			<path d="M393.651,212.335c-33.16,0-68.402-10.082-68.402-28.766c0-18.682,35.243-28.764,68.402-28.764
				s68.402,10.082,68.402,28.764C462.054,202.253,426.811,212.335,393.651,212.335z M393.651,164.799
				c-35.654,0-58.408,11.117-58.408,18.77c0,7.654,22.754,18.772,58.408,18.772s58.408-11.118,58.408-18.772
				C452.06,175.916,429.306,164.799,393.651,164.799z"/>
			<path d="M352.124,198.652c-13.921,0-24.421-6.484-24.421-15.083c0-8.596,10.5-15.081,24.421-15.081
				c13.923,0,24.423,6.484,24.423,15.081C376.546,192.168,366.047,198.652,352.124,198.652z M352.124,178.483
				c-9.467,0-14.427,3.781-14.427,5.086c0,1.308,4.96,5.089,14.427,5.089c9.467,0,14.429-3.781,14.429-5.089
				C366.553,182.264,361.591,178.483,352.124,178.483z"/>
			<rect x="475.153" y="181.543" width="9.994" height="130.595"/>
		</g>
		<g>
			<path d="M391.499,331.609c-8.126,0-15.545-2.944-20.89-8.288c-6.168-6.168-9.053-14.798-8.122-24.296
				c0.896-9.133,5.251-18.024,12.266-25.038c7.902-7.902,18.269-12.434,28.444-12.434c8.124,0,15.543,2.943,20.888,8.29
				c6.17,6.168,9.055,14.796,8.124,24.296c-0.896,9.131-5.252,18.022-12.268,25.038
				C412.041,327.077,401.672,331.609,391.499,331.609z M403.196,271.548c-7.544,0-15.336,3.464-21.375,9.506
				c-5.384,5.383-8.718,12.11-9.387,18.946c-0.634,6.469,1.226,12.24,5.241,16.253c3.507,3.508,8.288,5.362,13.824,5.362
				c7.544,0,15.334-3.465,21.375-9.506c5.384-5.384,8.718-12.112,9.387-18.946c0.634-6.467-1.228-12.239-5.243-16.252
				C413.511,273.402,408.73,271.548,403.196,271.548z"/>
			<g>
				<path d="M359.172,289.334c-3.686,0-7.462-1.425-10.634-4.013c-6.645-5.421-8.429-14-4.062-19.531
					c2.157-2.733,5.436-4.238,9.234-4.238c3.684,0,7.458,1.427,10.63,4.015c6.645,5.418,8.431,14,4.062,19.533
					C366.246,287.831,362.969,289.334,359.172,289.334z M353.71,271.546c-0.316,0-1.079,0.043-1.392,0.437
					c-0.595,0.755-0.086,3.453,2.536,5.594c1.354,1.103,2.969,1.763,4.318,1.763c0.244,0,1.069-0.031,1.386-0.431
					c0.597-0.757,0.09-3.457-2.536-5.598C356.67,272.206,355.058,271.546,353.71,271.546z"/>
				<path d="M349.006,317.036c-2.114,0-4.238-0.406-6.314-1.207c-7.831-3.02-12.292-10.603-10.152-17.267
					c1.565-4.884,6.346-8.04,12.176-8.04c2.114,0,4.238,0.406,6.313,1.207c7.835,3.023,12.295,10.609,10.158,17.267
					C359.617,313.879,354.837,317.036,349.006,317.036z M344.716,300.517c-1.337,0-2.455,0.462-2.66,1.099
					c-0.371,1.155,1.128,3.693,4.231,4.888c2.321,0.896,5.046,0.49,5.384-0.563c0.369-1.151-1.132-3.689-4.24-4.89
					C346.523,300.702,345.583,300.517,344.716,300.517z"/>
				<path d="M378.814,270.008L378.814,270.008c-4.532,0-9.199-2.405-12.486-6.434c-2.944-3.609-4.378-8.019-3.931-12.103
					c0.345-3.158,1.819-5.914,4.154-7.757c1.965-1.554,4.403-2.374,7.052-2.374c4.53,0,9.197,2.403,12.482,6.428
					c2.95,3.615,4.382,8.028,3.936,12.114c-0.346,3.158-1.823,5.913-4.158,7.755C383.901,269.188,381.463,270.008,378.814,270.008z
					 M373.603,251.335c-0.264,0-0.626,0.039-0.857,0.22c-0.275,0.219-0.379,0.666-0.414,1.001c-0.121,1.095,0.275,2.903,1.741,4.7
					c1.554,1.905,3.5,2.756,4.741,2.756l0,0c0.264,0,0.625-0.037,0.855-0.221c0.277-0.219,0.381-0.664,0.416-1
					c0.121-1.095-0.273-2.906-1.741-4.704C376.791,252.187,374.844,251.335,373.603,251.335z"/>
				<path d="M406.343,260.953L406.343,260.953c-5.818,0-11.384-4.296-13.849-10.689c-1.659-4.298-1.607-8.864,0.144-12.526
					c1.392-2.908,3.768-5.026,6.691-5.963c1.095-0.352,2.247-0.531,3.42-0.531c5.815,0,11.38,4.294,13.845,10.683
					c1.659,4.302,1.604,8.87-0.146,12.53c-1.39,2.908-3.765,5.026-6.688,5.965C408.664,260.773,407.514,260.953,406.343,260.953z
					 M402.75,241.238c-0.135,0-0.256,0.018-0.365,0.053c-0.111,0.037-0.433,0.139-0.73,0.761c-0.433,0.904-0.617,2.592,0.164,4.614
					c1.121,2.909,3.639,4.636,4.888,4.24c0.105-0.035,0.429-0.139,0.728-0.761c0.431-0.906,0.617-2.594-0.164-4.622
					C406.249,242.877,404.127,241.238,402.75,241.238z"/>
			</g>
		</g>
	</g>
	<g>
		<path d="M985.082,585.231c-3.93,0-8.073-0.733-12.342-2.217c-2.608-0.906-3.986-3.752-3.08-6.359
			c0.903-2.606,3.753-3.994,6.359-3.081c8.318,2.888,15.441,2.013,20.603-2.539c5.347-4.714,7.868-12.93,6.277-20.442
			c-1.743-8.228-29.191-18.009-53.622-22.354c-1.028-0.184-1.974-0.685-2.703-1.433c-18.567-19.043-111.414-114.442-115.96-122.494
			c-4.837-8.562-10.364-20.523-10.19-37.177c0.076-7.32-2.714-13.654-7.279-16.529c-5.73-3.603-13.17-1.288-18.402,1.288
			c-14.903,7.339-11.125,37.337-8.409,48.276c0.663,2.678-0.969,5.389-3.646,6.053c-2.68,0.666-5.39-0.968-6.053-3.646
			c-0.479-1.925-11.409-47.284,13.692-59.647c13.625-6.709,22.822-4.126,28.142-0.781c7.597,4.782,12.064,14.163,11.949,25.092
			c-0.147,14.19,4.416,24.218,8.899,32.156c3.84,6.176,69.429,74.279,113.301,119.291c12.4,2.319,56.228,11.755,60.058,29.832
			c2.353,11.101-1.354,22.881-9.443,30.011C998.195,582.974,991.973,585.231,985.082,585.231z"/>
		<path d="M945.404,620.985c-5.266,0-9.301-1.593-12.189-3.412c-7.597-4.78-12.065-14.161-11.952-25.092
			c0.15-14.192-4.415-24.22-8.898-32.156c-3.84-6.179-69.429-74.282-113.301-119.292c-12.401-2.319-56.228-11.752-60.058-29.832
			c-2.376-11.21,2.118-24.465,10.927-32.232c8.3-7.32,19.148-9.17,30.548-5.208c2.608,0.903,3.986,3.751,3.08,6.359
			c-0.903,2.605-3.749,3.992-6.359,3.08c-10.049-3.49-16.782-0.152-20.659,3.266c-6.133,5.407-9.395,14.938-7.759,22.664
			c1.743,8.226,29.189,18.007,53.62,22.352c1.028,0.184,1.976,0.683,2.703,1.433c18.567,19.042,111.413,114.443,115.96,122.495
			c4.836,8.559,10.366,20.521,10.19,37.177c-0.076,7.319,2.714,13.653,7.281,16.528c5.727,3.607,13.168,1.291,18.4-1.288
			c18.073-8.9,11.229-41.777,11.157-42.107c-0.579-2.699,1.137-5.355,3.834-5.938c2.699-0.576,5.356,1.136,5.938,3.834
			c0.357,1.663,8.478,40.867-16.513,53.179C955.131,619.859,949.832,620.985,945.404,620.985z"/>
	</g>
	<g>
		<path d="M544.371,453.327c-3.23,0-5.883-0.892-7.886-2.652c-4.831-4.25-16.039-15.015-15.827-23.203
			c0.064-2.483,1.128-4.665,2.995-6.143c4.284-3.393,43.893-27.158,48.396-29.857c2.186-1.31,5.009-0.765,6.549,1.265
			c19.029,25.065,16.295,30.487,15.266,32.529C590.921,431.104,559.504,453.327,544.371,453.327z M530.829,428.471
			c0.833,2.356,4.624,7.985,12.256,14.698c0.053,0.027,0.462,0.164,1.286,0.164c10.351,0,35.186-16.994,40.12-22.129
			c-0.862-3.113-5.565-10.994-11.194-18.825C557.73,411.737,536.124,424.869,530.829,428.471z"/>
		<path d="M541.683,420.726c-1.618,0-3.205-0.785-4.167-2.235c-6.072-9.148-7.833-23.507-7.903-24.112
			c-0.207-1.743,0.516-3.469,1.903-4.542c1.677-1.298,16.767-12.555,30.167-8.577c6.548,1.942,11.286,6.99,14.079,14.999
			c0.91,2.605-0.466,5.456-3.072,6.363c-2.602,0.914-5.454-0.467-6.363-3.072c-1.696-4.862-4.14-7.71-7.472-8.704
			c-5.979-1.784-14.231,2.292-18.86,5.255c0.751,4.148,2.506,11.831,5.848,16.865c1.526,2.299,0.898,5.401-1.401,6.928
			C543.592,420.456,542.632,420.726,541.683,420.726z"/>
		<path d="M567.763,464.381c-9.926,0-20.655-10.564-23.074-13.084c-1.909-1.991-1.845-5.153,0.148-7.064
			c1.991-1.911,5.155-1.844,7.064,0.146c5.727,5.948,14.21,11.386,16.984,9.744c3.818-2.256,5.941-14.72,6.008-22.85
			c0.021-2.746,2.255-4.956,4.995-4.956c0.014,0,0.027,0,0.043,0c2.758,0.021,4.978,2.278,4.956,5.038
			c-0.035,4.181-0.72,25.346-10.917,31.372C571.999,463.891,569.898,464.381,567.763,464.381z"/>
		<path d="M496.591,431.116c-2.358,0-4.406-1.655-4.89-3.976l-6.781-32.461c-0.318-1.528,0.094-3.115,1.115-4.294
			c1.023-1.179,2.532-1.813,4.091-1.716c0.113,0.008,11.456,0.724,22.678,1.571c6.611,0.5,11.899,0.947,15.711,1.328
			c7.675,0.767,10.851,1.085,11.598,5.174c0.496,2.713-1.304,5.317-4.019,5.813c-1.04,0.189-2.069,0.045-2.965-0.365
			c-3.441-0.658-20.238-1.999-37.081-3.121l4.581,21.934l25.98-0.751c2.746-0.057,5.06,2.093,5.14,4.851
			c0.08,2.76-2.093,5.06-4.851,5.14l-30.162,0.873C496.689,431.114,496.64,431.116,496.591,431.116z"/>
		<path d="M704.685,601.938c-1.517,0-3.006-0.689-3.982-1.976c-19.03-25.063-16.297-30.487-15.268-32.529
			c2.945-5.84,34.364-28.063,49.495-28.063c3.23,0,5.886,0.894,7.889,2.656c4.827,4.245,16.033,15.007,15.824,23.197
			c-0.064,2.484-1.129,4.667-2.994,6.146c-4.285,3.389-43.894,27.157-48.396,29.856
			C706.449,601.708,705.563,601.938,704.685,601.938z M694.81,571.496c0.861,3.113,5.563,10.993,11.194,18.824
			c15.567-9.359,37.175-22.494,42.471-26.094c-0.833-2.354-4.624-7.983-12.256-14.696c-0.057-0.027-0.465-0.166-1.289-0.166
			C724.579,549.364,699.744,566.36,694.81,571.496z"/>
		<path d="M723.663,612.286c-2.02,0-4.05-0.256-6.045-0.848c-6.549-1.942-11.286-6.988-14.081-14.999
			c-0.91-2.605,0.467-5.453,3.072-6.363c2.604-0.905,5.455,0.469,6.363,3.072c1.698,4.862,4.142,7.711,7.474,8.704
			c5.983,1.79,14.236-2.292,18.862-5.255c-0.752-4.147-2.509-11.83-5.851-16.862c-1.526-2.3-0.899-5.401,1.399-6.928
			c2.302-1.526,5.401-0.898,6.928,1.399c6.074,9.15,7.833,23.508,7.905,24.114c0.207,1.743-0.517,3.467-1.905,4.54
			C746.358,603.965,735.213,612.284,723.663,612.286z"/>
		<path d="M699.411,566.384c-0.014,0-0.027,0-0.041,0c-2.76-0.023-4.979-2.278-4.956-5.038c0.033-4.183,0.722-25.352,10.921-31.374
			c11.128-6.582,26.339,8.366,29.277,11.429c1.91,1.991,1.844,5.155-0.146,7.064c-1.991,1.911-5.155,1.843-7.066-0.146
			c-5.727-5.947-14.214-11.376-16.979-9.742c-3.82,2.255-5.946,14.72-6.013,22.852C704.384,564.174,702.151,566.384,699.411,566.384
			z"/>
		<path d="M789.489,604.039c-0.104,0-0.209-0.004-0.314-0.01c-0.113-0.008-11.456-0.725-22.678-1.571
			c-6.611-0.498-11.899-0.945-15.711-1.326c-7.678-0.767-10.855-1.085-11.599-5.178c-0.494-2.716,1.308-5.317,4.022-5.812
			c1.041-0.188,2.067-0.039,2.959,0.367c3.443,0.658,20.242,1.999,37.086,3.119l-4.582-21.932l-25.984,0.751
			c-2.75,0.119-5.059-2.093-5.139-4.851s2.092-5.06,4.851-5.14l30.165-0.872c2.446-0.068,4.54,1.604,5.036,3.974l6.779,32.461
			c0.32,1.526-0.094,3.113-1.115,4.293C792.313,603.412,790.934,604.039,789.489,604.039z"/>
		<path d="M593.826,489.473c-1.657,0-3.598-0.35-5.848-1.236c-10.064-3.962-23.548-18.088-20.937-30.353
			c0.574-2.698,3.223-4.419,5.928-3.848c2.699,0.576,4.421,3.229,3.847,5.928c-0.701,3.293,2.017,8.651,6.762,13.334
			c4.626,4.567,8.76,6.146,10.144,6.178c8.427-14.317,8.331-31.954,8.292-39.517c-0.006-0.841-0.008-1.558,0-2.134
			c-0.914-2.176-7.318-7.798-13.697-11.993c-2.307-1.517-2.948-4.614-1.431-6.919c1.517-2.307,4.614-2.946,6.921-1.431
			c8.394,5.52,18.366,13.515,18.202,20.251c-0.012,0.548-0.008,1.28-0.002,2.172c0.045,8.459,0.15,28.268-9.912,45.041
			C601.339,486.211,598.885,489.473,593.826,489.473z"/>
		<path d="M614.676,510.909c-1.917,0-3.951-0.363-6.049-1.095c-9.91-3.459-19.631-14.237-22.131-24.538
			c-0.65-2.682,0.996-5.386,3.678-6.036c2.686-0.646,5.383,0.996,6.035,3.678c1.87,7.71,9.781,15.391,15.711,17.46
			c0.941,0.325,3.254,0.995,4.433,0.078c10.345-8.048,13.059-33.438,11.616-37.772c-2.297-4.946-15.108-14.001-23.455-18.813
			c-2.391-1.378-3.211-4.435-1.835-6.824c1.378-2.391,4.433-3.209,6.824-1.836c3.814,2.198,23.066,13.648,27.583,23.388
			c3.018,6.51-0.002,38.391-14.597,49.748C620.3,510.049,617.628,510.909,614.676,510.909z"/>
		<path d="M642.337,537.378c-1.714,0-3.699-0.316-5.981-1.115c-10.398-3.63-24.749-17.192-27.668-29.237
			c-0.65-2.683,0.995-5.384,3.677-6.034c2.69-0.644,5.385,0.998,6.036,3.68c1.86,7.673,12.982,19.27,21.25,22.156
			c2.255,0.789,3.293,0.555,3.48,0.406c10.343-8.046,13.057-33.437,11.616-37.772c-2.299-4.944-15.11-14-23.457-18.813
			c-2.391-1.378-3.211-4.435-1.833-6.824c1.376-2.391,4.433-3.209,6.822-1.836c3.814,2.198,23.066,13.65,27.585,23.39
			c3.018,6.51-0.004,38.393-14.599,49.745C647.779,536.278,645.527,537.378,642.337,537.378z"/>
		<path d="M669.212,564.252c-1.714,0-3.699-0.316-5.981-1.114c-10.396-3.629-24.747-17.19-27.668-29.234
			c-0.65-2.682,0.995-5.384,3.677-6.035c2.686-0.645,5.383,0.997,6.036,3.677c1.862,7.676,12.984,19.271,21.25,22.159
			c2.254,0.784,3.295,0.552,3.48,0.403c10.343-8.046,13.057-33.437,11.616-37.771c-2.3-4.944-15.11-14.002-23.457-18.813
			c-2.392-1.378-3.211-4.433-1.835-6.824c1.38-2.389,4.433-3.213,6.824-1.835c3.814,2.196,23.066,13.648,27.583,23.388
			c3.018,6.51-0.004,38.394-14.597,49.746C674.654,563.153,672.401,564.252,669.212,564.252z"/>
		<path d="M707.88,539.271c-1.778,0-3.5-0.951-4.403-2.626c-3.065-5.686-14.273-10.004-17.956-11.069
			c-2.651-0.766-4.181-3.535-3.414-6.186c0.765-2.65,3.533-4.184,6.188-3.414c1.866,0.539,18.396,5.565,23.979,15.926
			c1.311,2.431,0.402,5.46-2.025,6.77C709.492,539.08,708.681,539.271,707.88,539.271z"/>
		<path d="M692.185,586.811c-15.442,0-26.953-23.46-28.29-26.301c-1.175-2.496-0.103-5.473,2.396-6.647
			c2.494-1.176,5.473-0.104,6.648,2.393c3.463,7.326,12.984,21.946,20.324,20.45c2.709-0.548,5.345,1.189,5.899,3.893
			s-1.189,5.345-3.892,5.898C694.226,586.709,693.195,586.811,692.185,586.811z"/>
	</g>
	<g>
		<path d="M1147.127,612.116c-49.184,0-89.196-40.014-89.196-89.196c0-49.184,40.013-89.196,89.196-89.196
			s89.196,40.013,89.196,89.196C1236.323,572.103,1196.311,612.116,1147.127,612.116z M1147.127,443.717
			c-43.673,0-79.202,35.529-79.202,79.203c0,43.673,35.529,79.202,79.202,79.202s79.202-35.529,79.202-79.202
			C1226.329,479.247,1190.8,443.717,1147.127,443.717z"/>
		<g>
			<path d="M1203.782,590.201c-0.911,0-1.829-0.25-2.643-0.757c-21.813-13.613-35.364-39.104-35.364-66.524
				c0-27.419,13.551-52.91,35.362-66.524c1.903-1.185,4.354-0.962,6.01,0.542c18.542,16.876,29.176,40.926,29.176,65.982
				c0,25.055-10.634,49.104-29.176,65.979C1206.203,589.76,1204.996,590.201,1203.782,590.201z M1203.231,467.018
				c-17.028,12.231-27.462,33.287-27.462,55.902c0,22.617,10.434,43.673,27.462,55.901c14.724-14.794,23.098-34.951,23.098-55.901
				S1217.955,481.812,1203.231,467.018z"/>
			<path d="M1090.474,590.201c-1.214,0-2.421-0.441-3.365-1.302c-18.544-16.877-29.178-40.925-29.178-65.979
				c0-25.054,10.634-49.104,29.176-65.98c1.653-1.509,4.11-1.731,6.008-0.544c21.815,13.613,35.368,39.104,35.368,66.524
				s-13.551,52.911-35.366,66.524C1092.303,589.951,1091.385,590.201,1090.474,590.201z M1091.024,467.018
				c-14.726,14.794-23.1,34.954-23.1,55.902c0,20.95,8.374,41.107,23.1,55.901c17.028-12.229,27.464-33.284,27.464-55.901
				S1108.053,479.247,1091.024,467.018z"/>
		</g>
	</g>
	<g>
		<path d="M329.243,544.492c-80.262,0-165.566-17.724-165.566-50.57c0-32.848,85.304-50.571,165.566-50.571
			c80.262,0,165.566,17.724,165.566,50.571C494.809,526.769,409.505,544.492,329.243,544.492z M329.243,453.344
			c-91.681,0-155.572,21.384-155.572,40.578c0,19.191,63.891,40.577,155.572,40.577c91.681,0,155.572-21.386,155.572-40.577
			C484.815,474.728,420.924,453.344,329.243,453.344z"/>
		<path d="M194.275,523.614c-1.922,0-3.755-1.116-4.579-2.988c-1.109-2.527,0.039-5.476,2.567-6.586
			c30.356-13.336,81.564-21.298,136.98-21.298c55.41,0,106.613,7.96,136.972,21.294c2.528,1.11,3.676,4.059,2.567,6.584
			c-1.11,2.528-4.058,3.676-6.586,2.567c-29.154-12.806-78.856-20.451-132.953-20.451c-54.103,0-103.807,7.646-132.961,20.455
			C195.628,523.478,194.945,523.614,194.275,523.614z"/>
		<path d="M329.243,593.885c-80.262,0-165.566-17.724-165.566-50.571v-49.392c0-2.761,2.237-4.998,4.997-4.998
			c2.76,0,4.997,2.237,4.997,4.998v49.392c0,19.191,63.891,40.577,155.572,40.577c91.681,0,155.572-21.386,155.572-40.577
			c-0.076-10.95-0.301-47.021,0.031-49.954c0.312-2.741,2.777-4.706,5.528-4.404c2.73,0.311,4.696,2.764,4.407,5.493
			c-0.208,2.603-0.094,31.313,0.027,48.83C494.809,576.161,409.505,593.885,329.243,593.885z"/>
		<path d="M317.246,593.754c-2.523,0-4.692-1.905-4.964-4.47c-0.291-2.745,1.698-5.206,4.443-5.497
			c9.473-1.019,35.083-6.924,39.73-21.795c0.451-1.441,0.285-2.53-0.574-3.76c-6.143-8.815-36.917-13.537-54.872-14.442
			c-2.756-0.141-4.878-2.487-4.737-5.243c0.139-2.756,2.483-4.856,5.241-4.739c5.254,0.266,51.648,3.043,62.568,18.709
			c2.621,3.764,3.283,8.069,1.913,12.458c-7.556,24.175-46.56,28.576-48.217,28.752C317.6,593.744,317.422,593.754,317.246,593.754z
			"/>
		<path d="M213.19,579.808h-23.195c-2.76,0-4.997-2.237-4.997-4.997v-52.635c0-2.76,2.237-4.997,4.997-4.997h24.651
			c2.76,0,4.997,2.237,4.997,4.997s-2.237,4.997-4.997,4.997h-19.654v42.641h18.198c2.76,0,4.997,2.236,4.997,4.997
			C218.187,577.57,215.95,579.808,213.19,579.808z"/>
		<path d="M212.653,555.154c-0.13,0-0.263-0.004-0.396-0.016c-17.583-1.38-29.994-6.482-30.513-6.699
			c-2.547-1.062-3.754-3.988-2.692-6.535c1.062-2.545,3.986-3.754,6.529-2.691c0.16,0.064,11.585,4.718,27.458,5.963
			c2.75,0.215,4.806,2.621,4.589,5.372C217.424,553.167,215.235,555.154,212.653,555.154z"/>
		<path d="M311.71,619.783c-7.806,0-14.157-6.352-14.157-14.157c0-7.808,6.352-14.16,14.157-14.16c7.808,0,14.16,6.353,14.16,14.16
			C325.87,613.432,319.519,619.783,311.71,619.783z M311.71,601.46c-2.295,0-4.164,1.868-4.164,4.166
			c0,2.295,1.868,4.163,4.164,4.163c2.297,0,4.166-1.868,4.166-4.163C315.876,603.328,314.008,601.46,311.71,601.46z"/>
		<path d="M311.71,628.775c-2.76,0-4.997-2.236-4.997-4.997v-18.152c0-2.761,2.237-4.997,4.997-4.997
			c2.76,0,4.997,2.236,4.997,4.997v18.152C316.708,626.539,314.471,628.775,311.71,628.775z"/>
		<path d="M311.71,673.417c-15.889,0-28.816-12.928-28.816-28.816c0-15.89,12.928-28.817,28.816-28.817
			c15.889,0,28.817,12.928,28.817,28.817C340.527,660.489,327.6,673.417,311.71,673.417z M311.71,625.777
			c-10.378,0-18.823,8.444-18.823,18.823c0,10.378,8.444,18.822,18.823,18.822s18.823-8.444,18.823-18.822
			C330.533,634.222,322.089,625.777,311.71,625.777z"/>
	</g>
	<g>
		<path d="M505.957,836.367c-7.296,0-14.676-1.835-20.788-5.5c-18.241-10.943-18.44-24.646-18.303-27.217l-0.027-19.178
			c-0.004-2.758,2.231-4.999,4.991-5.003c0.002,0,0.004,0,0.006,0c2.758,0,4.993,2.233,4.997,4.991l0.027,19.332
			c0,0.186-0.01,0.373-0.031,0.559c-0.018,0.293-0.496,9.559,13.482,17.946c8.971,5.382,22.063,5.47,30.45,0.201
			c6.721-4.219,9.814-11.483,8.948-21.009c-2.028-22.309-43.655-41.871-59.524-47.526c-2.598-0.925-3.955-3.785-3.03-6.383
			c0.927-2.602,3.783-3.962,6.385-3.029c2.575,0.917,63.107,22.855,66.123,56.032c1.212,13.33-3.613,24.118-13.587,30.379
			C520.331,834.565,513.185,836.367,505.957,836.367z"/>
		<path d="M533.349,819.171c-2.202,0-4.218-1.466-4.821-3.693c-0.721-2.662,0.853-5.407,3.517-6.129
			c12.432-3.367,22.762-15.294,25.706-29.678c2.502-12.234-21.837-71.311-37.599-95.325c-12.608-19.211-47.247-14.415-47.598-14.368
			c-2.737,0.418-5.267-1.497-5.663-4.226c-0.396-2.731,1.495-5.267,4.226-5.663c1.681-0.246,41.329-5.697,57.392,18.771
			c12.908,19.67,42.794,84.428,39.033,102.813c-3.738,18.274-16.646,32.924-32.884,37.321
			C534.219,819.114,533.78,819.171,533.349,819.171z"/>
		<path d="M476.063,844.866c-2.676,0-4.462-0.166-4.72-0.191c-2.746-0.273-4.753-2.719-4.479-5.466
			c0.271-2.744,2.707-4.741,5.459-4.481c5.163,0.49,19.768,0.258,25.206-6.713c1.7-2.174,4.837-2.561,7.013-0.864
			s2.563,4.837,0.867,7.014C498.079,843.557,483.572,844.866,476.063,844.866z"/>
		<path d="M471.835,789.464c-2.752,0-4.989-2.227-4.997-4.981c-0.008-2.748,2.202-4.983,4.944-5.013
			c1.173-0.027,6.962-0.456,7.923-6.215c0.945-5.674-0.492-12.484-3.418-16.193c-1.397-1.771-2.959-2.693-4.771-2.818
			c-2.754-0.191-4.831-2.579-4.64-5.331c0.191-2.752,2.566-4.815,5.331-4.64c4.649,0.322,8.772,2.604,11.924,6.598
			c4.731,5.996,6.863,15.429,5.431,24.028c-1.915,11.485-12.422,14.55-17.712,14.565
			C471.845,789.464,471.841,789.464,471.835,789.464z"/>
		<path d="M508.365,758.227c-7.942,0-14.403-6.463-14.403-14.405c0-7.94,6.461-14.401,14.403-14.401
			c7.943,0,14.404,6.461,14.404,14.401C522.769,751.764,516.308,758.227,508.365,758.227z M508.365,739.414
			c-2.432,0-4.409,1.978-4.409,4.407c0,2.433,1.977,4.412,4.409,4.412c2.43,0,4.41-1.979,4.41-4.412
			C512.775,741.392,510.795,739.414,508.365,739.414z"/>
		<path d="M562.895,697.557c-1.54,0-3.059-0.709-4.039-2.046c-0.092-0.127-9.404-12.756-20.277-19.307
			c-9.348-5.629-22.118,0.17-22.244,0.23c-2.491,1.187-5.472,0.129-6.66-2.362c-1.187-2.49-0.131-5.473,2.362-6.66
			c0.714-0.339,17.653-8.234,31.7,0.23c12.627,7.609,22.766,21.39,23.191,21.974c1.626,2.227,1.138,5.351-1.089,6.978
			C564.951,697.244,563.918,697.557,562.895,697.557z"/>
		<path d="M563.67,730.987c-2.787,0-4.937-1.319-6.236-2.963c-2.715-3.428-13.716-15.99-22.555-26.084
			c-12.526-14.3-13.055-14.95-13.488-15.66c-1.44-2.354-0.699-5.431,1.655-6.869c2.265-1.386,5.19-0.751,6.693,1.386
			c0.867,1.098,6.859,7.94,12.656,14.56c8.565,9.781,18.175,20.753,21.959,25.341c1.687-0.896,4.931-3.658,7.994-8.403
			c3.8-5.888,5.475-12.052,4.374-16.086c-2.397-8.792-20.679-12.06-26.894-12.511c-2.75-0.198-4.821-2.588-4.624-5.34
			c0.195-2.751,2.596-4.802,5.333-4.628c3.174,0.224,31.147,2.684,35.828,19.847c3.596,13.186-8.085,31.265-17.614,36.08
			C566.891,730.598,565.185,730.987,563.67,730.987z"/>
		<path d="M545.423,727.679c-0.939,0-1.89-0.263-2.735-0.817c-2.307-1.515-2.951-4.61-1.438-6.92l6.09-9.287
			c1.513-2.308,4.609-2.955,6.92-1.438c2.307,1.515,2.951,4.61,1.438,6.919l-6.09,9.288
			C548.648,726.885,547.051,727.679,545.423,727.679z"/>
		<path d="M437.713,836.367c-7.228,0-14.375-1.8-20.115-5.404c-9.974-6.261-14.801-17.049-13.589-30.379
			c3.018-33.177,63.548-55.115,66.123-56.032c2.596-0.931,5.456,0.43,6.385,3.027c0.925,2.598-0.43,5.458-3.027,6.385
			c-15.87,5.667-57.501,25.251-59.527,47.526c-0.865,9.525,2.229,16.79,8.95,21.009c8.39,5.263,21.481,5.179,30.448-0.201
			c13.98-8.388,13.502-17.653,13.475-18.044c-0.021-0.186-0.021-0.275-0.021-0.461l0.025-19.332
			c0.004-2.758,2.241-4.991,4.997-4.991c0.002,0,0.006,0,0.008,0c2.76,0.004,4.993,2.245,4.989,5.003l-0.025,19.178
			c0.135,2.571-0.064,16.273-18.305,27.217C452.392,834.532,445.009,836.367,437.713,836.367z"/>
		<path d="M410.321,819.171c-0.432,0-0.871-0.057-1.31-0.176c-16.236-4.397-29.145-19.047-32.882-37.321
			c-3.762-18.388,26.126-83.146,39.033-102.813c16.061-24.469,55.71-19.018,57.391-18.771c2.73,0.396,4.624,2.932,4.228,5.663
			c-0.396,2.729-2.924,4.62-5.659,4.228l0,0c-0.349-0.055-35.043-4.774-47.604,14.366c-15.76,24.015-40.101,83.091-37.598,95.325
			c2.943,14.384,13.273,26.311,25.705,29.678c2.665,0.722,4.238,3.467,3.518,6.129C414.539,817.705,412.523,819.171,410.321,819.171
			z"/>
		<path d="M467.607,844.866c-7.507,0-22.014-1.308-29.344-10.702c-1.698-2.177-1.312-5.315,0.865-7.014
			c2.178-1.696,5.317-1.31,7.013,0.864c5.44,6.973,20.044,7.205,25.209,6.713c2.733-0.26,5.187,1.745,5.454,4.489
			c0.268,2.743-1.733,5.185-4.476,5.458C472.071,844.7,470.283,844.866,467.607,844.866z"/>
		<path d="M471.835,789.464c-0.004,0-0.01,0-0.014,0c-5.29-0.016-15.799-3.08-17.712-14.565c-1.435-8.6,0.697-18.032,5.431-24.028
			c3.15-3.993,7.275-6.275,11.922-6.598c2.778-0.166,5.142,1.888,5.333,4.64c0.189,2.752-1.887,5.14-4.64,5.331
			c-1.813,0.125-3.373,1.048-4.771,2.818c-2.928,3.709-4.365,10.52-3.418,16.193c0.962,5.771,6.773,6.189,7.929,6.215
			c2.74,0.061,4.946,2.319,4.911,5.06C476.773,787.265,474.569,789.464,471.835,789.464z"/>
		<path d="M435.306,758.227c-7.943,0-14.404-6.463-14.404-14.405c0-7.94,6.461-14.401,14.404-14.401
			c7.942,0,14.403,6.461,14.403,14.401C449.709,751.764,443.249,758.227,435.306,758.227z M435.306,739.414
			c-2.432,0-4.41,1.978-4.41,4.407c0,2.433,1.978,4.412,4.41,4.412c2.43,0,4.409-1.979,4.409-4.412
			C439.715,741.392,437.736,739.414,435.306,739.414z"/>
		<path d="M380.774,697.557c-1.023,0-2.056-0.313-2.943-0.963c-2.228-1.627-2.715-4.751-1.089-6.978
			c0.425-0.584,10.566-14.364,23.193-21.974c14.048-8.467,30.985-0.571,31.7-0.23c2.491,1.188,3.549,4.17,2.362,6.66
			c-1.185,2.487-4.162,3.543-6.648,2.368c-0.234-0.109-12.889-5.879-22.256-0.236c-10.875,6.551-20.187,19.18-20.279,19.307
			C383.833,696.848,382.314,697.557,380.774,697.557z"/>
		<path d="M380.001,730.987c-1.517,0-3.221-0.39-5.083-1.331c-9.527-4.815-21.21-22.895-17.614-36.08
			c4.683-17.163,32.654-19.623,35.83-19.847c2.73-0.195,5.141,1.881,5.334,4.634c0.195,2.752-1.88,5.142-4.632,5.336
			c-6.211,0.449-24.493,3.717-26.89,12.509c-1.101,4.034,0.576,10.198,4.375,16.086c3.063,4.745,6.307,7.507,7.993,8.403
			c3.785-4.588,13.394-15.56,21.959-25.341c5.799-6.621,11.792-13.462,12.656-14.56c1.503-2.137,4.429-2.771,6.693-1.386
			c2.354,1.438,3.096,4.515,1.657,6.869c-0.436,0.71-0.962,1.36-13.488,15.66c-8.84,10.094-19.839,22.656-22.555,26.084
			C384.936,729.668,382.787,730.987,380.001,730.987z"/>
		<path d="M398.246,727.679c-1.628,0-3.225-0.794-4.185-2.256l-6.088-9.288c-1.513-2.309-0.869-5.406,1.438-6.919
			c2.305-1.517,5.405-0.869,6.92,1.438l6.088,9.287c1.513,2.31,0.869,5.407-1.438,6.92
			C400.136,727.416,399.185,727.679,398.246,727.679z"/>
	</g>
	<g>
		<path d="M699.231,815.429c-19.848,0-35.098-2.979-45.326-8.854c-9.307-5.347-14.433-13.244-14.433-22.239
			c0-15.125,15.051-29.972,30.384-29.972c3.479,0,6.805,0.741,9.887,2.208c6.434,3.057,17.452,4.673,31.864,4.673
			c23.886,0,50.797-4.484,63.017-8.817c2.938-1.042,5.918-2.216,8.799-3.35c8.339-3.283,16.217-6.385,23.02-6.385
			c10.896,0,16.777,7.511,17.481,22.326c1.346,28.298-35.52,45.084-109.57,49.895C709.076,815.255,703.988,815.429,699.231,815.429z
			 M669.856,764.358c-9.908,0-20.39,10.269-20.39,19.978c0,5.417,3.17,9.982,9.418,13.572c10.755,6.18,29.892,8.655,54.821,7.031
			c65.646-4.264,101.243-18.271,100.236-39.443c-0.609-12.809-4.923-12.809-7.5-12.809c-4.907,0-11.926,2.764-19.357,5.689
			c-2.961,1.166-6.021,2.37-9.119,3.471c-15.097,5.353-43.624,9.391-66.358,9.391c-16.113,0-28.278-1.896-36.154-5.641
			C673.723,764.775,671.839,764.358,669.856,764.358z"/>
		<path d="M677.596,766.084c-0.668,0-1.345-0.135-1.995-0.42c-13.578-5.922-18.758-17.876-13.521-31.198
			c6.01-15.281,24.784-28.065,42.101-21.975c23.545,8.272,58.163,3.207,58.51,3.156c0.977-0.146,23.848-3.391,34.757,8.854
			c5.643,6.33,6.986,15.198,3.989,26.355c-0.716,2.664-3.448,4.249-6.123,3.529c-2.664-0.715-4.245-3.457-3.529-6.121
			c2.065-7.691,1.464-13.443-1.786-17.102c-6.064-6.824-20.708-6.377-25.836-5.631c-1.497,0.224-37.378,5.494-63.293-3.613
			c-11.618-4.076-25.155,5.187-29.488,16.205c-2.264,5.762-2.68,13.628,8.216,18.382c2.53,1.103,3.685,4.048,2.583,6.578
			C681.359,764.961,679.522,766.084,677.596,766.084z"/>
		<path d="M772.267,725.173c-0.343,0-0.692-0.037-1.044-0.111c-2.479-0.527-4.136-2.811-3.943-5.272
			c-1.832-3.066-14.732-9.617-23.694-11.961c-6.795-1.782-8.563-8.694-10.123-14.79c-0.915-3.578-1.858-7.26-3.556-9.288
			c-4.004,3.756-11.978,19.861-17.974,36.596c-0.93,2.598-3.793,3.948-6.39,3.02c-2.598-0.931-3.95-3.791-3.02-6.389
			c4.283-11.96,15.304-40.128,25.108-43.372c2.357-0.775,4.759-0.471,6.766,0.866c5.582,3.719,7.337,10.578,8.746,16.09
			c0.654,2.554,1.87,7.309,2.976,7.6c0.337,0.088,33.909,9.516,31.031,23.052C776.651,723.563,774.576,725.173,772.267,725.173z"/>
	</g>
	<g>
		<path d="M1038.948,838.792H881.486c-11.544,0-20.935-9.391-20.935-20.933V694.354c0-11.544,9.391-20.937,20.935-20.937h157.462
			c11.544,0,20.935,9.393,20.935,20.937v123.506C1059.883,829.401,1050.492,838.792,1038.948,838.792z M881.486,683.411
			c-6.031,0-10.94,4.909-10.94,10.942v123.506c0,6.031,4.909,10.938,10.94,10.938h157.462c6.033,0,10.94-4.907,10.94-10.938V694.354
			c0-6.033-4.907-10.942-10.94-10.942H881.486z"/>
		<path d="M971.719,798.745h-23.004c-2.76,0-4.996-2.236-4.996-4.996v-21.146h-21.144c-2.761,0-4.997-2.237-4.997-4.997v-23.002
			c0-2.76,2.236-4.997,4.997-4.997h21.144v-21.144c0-2.76,2.236-4.997,4.996-4.997h23.004c2.761,0,4.997,2.237,4.997,4.997v21.144
			h21.144c2.76,0,4.997,2.237,4.997,4.997v23.002c0,2.76-2.237,4.997-4.997,4.997h-21.144v21.146
			C976.716,796.509,974.479,798.745,971.719,798.745z M953.712,788.752h13.01v-21.146c0-2.761,2.237-4.997,4.997-4.997h21.144
			v-13.008h-21.144c-2.76,0-4.997-2.237-4.997-4.997v-21.144h-13.01v21.144c0,2.76-2.236,4.997-4.997,4.997h-21.143v13.008h21.143
			c2.761,0,4.997,2.236,4.997,4.997V788.752z"/>
		<path d="M994.262,683.411h-14.726c-2.76,0-4.997-2.237-4.997-4.997v-8.495h-36.644v8.495c0,2.76-2.237,4.997-4.997,4.997h-14.728
			c-2.76,0-4.997-2.237-4.997-4.997v-10.117c0-12.736,10.363-23.1,23.1-23.1h39.887c12.736,0,23.099,10.363,23.099,23.1v10.117
			C999.259,681.174,997.022,683.411,994.262,683.411z M984.533,673.417h4.731v-5.12c0-7.227-5.879-13.105-13.104-13.105h-39.887
			c-7.226,0-13.105,5.879-13.105,13.105v5.12h4.733v-5.12c0-4.616,3.756-8.372,8.372-8.372h39.887c4.618,0,8.373,3.756,8.373,8.372
			V673.417z"/>
	</g>
</g>
</svg>
