<?xml version="1.0" encoding="utf-8"?>
<!-- Generator: Adobe Illustrator 22.1.0, SVG Export Plug-In . SVG Version: 6.00 Build 0)  -->
<svg version="1.1" id="Layer_1" xmlns="http://www.w3.org/2000/svg" xmlns:xlink="http://www.w3.org/1999/xlink" x="0px" y="0px"
	 viewBox="0 0 300 300" style="enable-background:new 0 0 300 300;" xml:space="preserve">
<style type="text/css">
	.st0{fill:#5CC6BC;}
	.st1{fill:#E9C6A8;}
	.st2{fill:#E9AB87;}
	.st3{fill:#FFFFFF;}
	.st4{font-family:'Jokerman-Regular';}
	.st5{font-size:75.1495px;}
	.st6{letter-spacing:4;}
</style>
<title>LogoMain</title>
<rect class="st0" width="300" height="300"/>
<g id="Layer_2_1_">
	<g id="Layer_1-2">
		<path class="st1" d="M57.1,207c-3.1-2.3-6.1-4.6-8.9-7.1c-1.2-1.1-3.1-0.9-4.1,0.3c-1.1,1.2-0.9,3.1,0.3,4.1l0,0
			c3,2.6,6.1,5.1,9.4,7.5c0.5,0.4,1.1,0.6,1.7,0.6c0.9,0,1.8-0.4,2.4-1.2C58.7,209.8,58.4,207.9,57.1,207z"/>
		<path class="st1" d="M270.1,192.4c-2.5,2.8-5.3,5.5-8.2,7.9c-1.2,1.1-1.3,2.9-0.3,4.1c1.1,1.2,2.9,1.3,4.1,0.3
			c3-2.6,5.9-5.5,8.6-8.4c1.1-1.1,1.1-3,0-4.1c-1.1-1.1-3-1.1-4.1,0C270.3,192.2,270.2,192.3,270.1,192.4L270.1,192.4z"/>
		<path class="st1" d="M76.8,218.7c-3.5-1.7-6.9-3.5-10.1-5.4c-1.4-0.8-3.2-0.3-4,1.1c-0.8,1.4-0.3,3.2,1.1,4
			c3.4,2,6.9,3.9,10.5,5.6c0.4,0.2,0.8,0.3,1.3,0.3c1.6,0,2.9-1.3,2.9-2.9C78.5,220.2,77.8,219.2,76.8,218.7z"/>
		<path class="st1" d="M33.1,183c-0.9-1.3-2.7-1.7-4.1-0.8c-1.3,0.9-1.7,2.7-0.8,4.1c2.3,3.3,4.8,6.5,7.5,9.5c0.6,0.6,1.4,1,2.2,1
			c0.7,0,1.4-0.3,2-0.8c1.2-1.1,1.3-2.9,0.3-4.1c0,0,0,0,0,0C37.6,189.1,35.2,186.1,33.1,183z"/>
		<path class="st1" d="M43,90.8c-1.1-1.1-2.9-1.2-4.1,0c0,0,0,0,0,0c-2.8,2.9-5.5,5.9-7.9,9.1c-1,1.3-0.7,3.1,0.5,4.1c0,0,0,0,0,0
			c0.5,0.4,1.1,0.6,1.8,0.6c0.9,0,1.8-0.4,2.3-1.2c2.3-3,4.8-5.8,7.4-8.5C44.1,93.7,44.1,91.9,43,90.8z"/>
		<path class="st1" d="M98.1,227.1c-3.7-1.2-7.3-2.5-10.9-3.9c-1.5-0.7-3.2,0-3.9,1.5c-0.7,1.5,0,3.2,1.5,3.9c0.1,0,0.2,0.1,0.2,0.1
			c3.7,1.4,7.4,2.8,11.3,4c0.3,0.1,0.6,0.2,0.9,0.2c1.6,0,3-1.2,3-2.9C100.3,228.6,99.5,227.4,98.1,227.1L98.1,227.1z"/>
		<path class="st1" d="M23.2,162.8c-0.5-1.6-2.1-2.4-3.6-2c-1.6,0.5-2.4,2.1-2,3.6c1.2,3.9,2.7,7.7,4.5,11.4c0.5,1,1.5,1.7,2.6,1.7
			c0.4,0,0.9-0.1,1.3-0.3c1.4-0.7,2-2.5,1.3-3.9c0,0,0,0,0,0C25.7,169.9,24.3,166.4,23.2,162.8z"/>
		<path class="st1" d="M143.4,235.4c-3.9-0.2-7.7-0.6-11.5-1c-1.6-0.2-3.1,1-3.2,2.6c-0.2,1.6,1,3.1,2.6,3.2l0,0
			c3.9,0.4,7.8,0.8,11.8,1h0.2c1.6,0,3-1.2,3-2.9C146.4,236.8,145.1,235.4,143.4,235.4L143.4,235.4z"/>
		<path class="st1" d="M233.2,218.9c-3.5,1.6-6.9,3.1-10.5,4.6c-1.5,0.6-2.3,2.3-1.7,3.8c0.4,1.2,1.6,1.9,2.8,1.9
			c0.4,0,0.7-0.1,1-0.2c3.8-1.5,7.4-3,11-4.7c1.5-0.6,2.2-2.4,1.6-3.9c-0.6-1.5-2.4-2.2-3.9-1.6
			C233.5,218.9,233.4,218.9,233.2,218.9L233.2,218.9z"/>
		<path class="st1" d="M211.8,227.3c-3.6,1.2-7.3,2.2-11.1,3.1c-1.6,0.4-2.5,2-2.1,3.5c0,0,0,0,0,0c0.3,1.3,1.5,2.3,2.9,2.3
			c0.2,0,0.5,0,0.7-0.1c3.9-0.9,7.7-2,11.5-3.2c1.5-0.5,2.4-2.1,1.9-3.7C215.1,227.7,213.4,226.8,211.8,227.3z"/>
		<path class="st1" d="M253,207.4c-3,2.2-6.3,4.2-9.6,6.2c-1.4,0.8-1.9,2.6-1.1,4s2.6,1.9,4,1.1c3.5-2,6.9-4.2,10.1-6.5
			c1.3-0.9,1.7-2.7,0.7-4.1c0,0,0,0,0,0C256.2,206.7,254.3,206.4,253,207.4z"/>
		<path class="st1" d="M120.5,232.7c-3.8-0.7-7.6-1.5-11.3-2.4c-1.6-0.3-3.1,0.7-3.4,2.3c-0.3,1.5,0.6,2.9,2,3.4
			c3.8,0.9,7.7,1.8,11.6,2.5c0.2,0,0.3,0,0.5,0c1.4,0,2.6-1,2.9-2.4c0.3-1.5-0.7-3-2.2-3.3C120.6,232.7,120.5,232.7,120.5,232.7z"/>
		<path class="st1" d="M189.5,232.8c-3.8,0.7-7.6,1.2-11.4,1.7c-1.6,0.1-2.8,1.5-2.7,3.2c0.1,1.6,1.5,2.7,3,2.7h0.3
			c4-0.4,7.9-1,11.8-1.7c1.6-0.3,2.7-1.8,2.4-3.4c0,0,0,0,0,0C192.6,233.6,191,232.6,189.5,232.8z"/>
		<path class="st1" d="M18.5,155.1c1.6-0.2,2.8-1.6,2.6-3.2c-0.3-2.3-0.4-4.7-0.4-7c0-3.7,0.3-7.5,1-11.1c0.3-1.6-0.8-3.2-2.4-3.4
			s-3.2,0.8-3.4,2.4l0,0c-0.8,4-1.1,8.1-1.2,12.2c0,2.6,0.2,5.1,0.4,7.7c0.2,1.5,1.5,2.7,3,2.6C18.2,155.2,18.3,155.2,18.5,155.1z"
			/>
		<path class="st1" d="M166.5,235.4c-3.7,0.2-7.4,0.3-11.2,0.3H155c-1.6-0.1-3,1.1-3.1,2.7c-0.1,1.6,1.1,3,2.7,3.1
			c0.1,0,0.2,0,0.4,0h0.3c3.9,0,7.7-0.1,11.5-0.3c1.6-0.1,2.8-1.5,2.8-3.1C169.5,236.6,168.2,235.3,166.5,235.4
			C166.6,235.4,166.5,235.4,166.5,235.4z"/>
		<path class="st1" d="M287,172.6c-1.4-0.7-3.2-0.2-3.9,1.3c0,0,0,0,0,0.1c-1.7,3.4-3.6,6.6-5.8,9.6c-0.9,1.3-0.6,3.1,0.7,4.1
			c0,0,0,0,0,0c0.5,0.3,1.1,0.5,1.7,0.6c1,0,1.9-0.5,2.4-1.3c2.3-3.3,4.4-6.8,6.2-10.4C289,175.1,288.4,173.3,287,172.6z"/>
		<path class="st1" d="M204.9,60.5c3.8,1,7.4,2.1,11,3.4c1.5,0.5,3.2-0.3,3.7-1.8c0,0,0,0,0,0c0.5-1.5-0.3-3.2-1.8-3.7c0,0,0,0,0,0
			c-3.7-1.3-7.5-2.4-11.4-3.5c-1.5-0.4-3.1,0.5-3.6,2c0,0,0,0.1,0,0.1C202.4,58.5,203.4,60.1,204.9,60.5z"/>
		<path class="st1" d="M288.3,130.4c0.9,3.6,1.4,7.3,1.7,11c0.1,1.6,1.4,2.8,2.9,2.8h0.2c1.6-0.1,2.8-1.5,2.8-3.1
			c-0.2-4.1-0.8-8.1-1.8-12.1c-0.4-1.6-2-2.6-3.6-2.2S287.9,128.8,288.3,130.4L288.3,130.4z"/>
		<path class="st1" d="M159.3,54.2c3.9,0.1,7.7,0.3,11.5,0.6h0.2c1.6,0,2.9-1.3,2.9-3c0-1.5-1.2-2.7-2.7-2.9
			c-3.9-0.3-7.9-0.5-11.8-0.6c-1.6,0-2.9,1.2-3,2.8c0,0,0,0,0,0C156.4,52.8,157.7,54.1,159.3,54.2z"/>
		<path class="st1" d="M284.8,119.7c0.5,1.1,1.5,1.8,2.7,1.8c1.6,0,2.9-1.2,3-2.8c0-0.4-0.1-0.8-0.2-1.2c-1.6-3.7-3.5-7.3-5.6-10.8
			c-0.9-1.3-2.7-1.7-4.1-0.8c-1.3,0.9-1.6,2.5-0.9,3.9C281.5,113,283.3,116.3,284.8,119.7z"/>
		<path class="st1" d="M226.7,67.9c3.6,1.5,7.1,3.1,10.4,4.8c0.4,0.2,0.9,0.3,1.3,0.3c1.1,0,2.1-0.6,2.6-1.6c0.7-1.4,0.2-3.2-1.3-4
			c-3.5-1.8-7.1-3.5-10.8-5.1c-1.5-0.6-3.2,0.1-3.9,1.5C224.4,65.5,225.2,67.3,226.7,67.9z"/>
		<path class="st1" d="M292.9,150c-1.6-0.2-3,0.9-3.2,2.5c0,0,0,0.1,0,0.1c-0.5,3.7-1.3,7.4-2.4,10.9c-0.5,1.5,0.4,3.1,1.9,3.6
			c0,0,0,0,0.1,0c0.3,0.1,0.6,0.1,0.9,0.1c1.3,0,2.4-0.8,2.8-2c1.2-3.9,2.1-7.9,2.6-11.9C295.6,151.7,294.4,150.2,292.9,150z"/>
		<path class="st1" d="M20.8,124.8c0.3,0.1,0.7,0.2,1,0.2c1.2,0,2.3-0.8,2.8-1.9c1.3-3.5,2.9-6.9,4.7-10.2c0.8-1.4,0.3-3.2-1.1-4
			s-3.2-0.3-4,1.1c-2,3.5-3.7,7.2-5.1,11c-0.6,1.5,0.1,3.2,1.6,3.8C20.7,124.7,20.8,124.7,20.8,124.8z"/>
		<path class="st1" d="M265.1,92.4c2.8,2.6,5.4,5.4,7.8,8.3c0.6,0.7,1.4,1.1,2.3,1c0.7,0,1.3-0.2,1.9-0.7c1.2-1,1.4-2.8,0.4-4.1
			c0,0,0,0,0-0.1c-2.6-3.1-5.3-6-8.3-8.8c-1.2-1.1-3-1.1-4.2,0.1C263.9,89.4,264,91.3,265.1,92.4L265.1,92.4z"/>
		<path class="st1" d="M49.5,87.9c0.7,0,1.3-0.2,1.9-0.7c2.9-2.4,6-4.7,9.2-6.8c1.4-0.8,1.9-2.6,1-4s-2.6-1.9-4-1
			c-0.1,0-0.2,0.1-0.2,0.2c-3.4,2.3-6.6,4.6-9.6,7.1c-1.3,1-1.5,2.9-0.4,4.1C47.8,87.5,48.7,87.9,49.5,87.9z"/>
		<path class="st1" d="M112.8,58.7c0.2,0,0.4,0,0.7-0.1c3.7-0.8,7.5-1.5,11.4-2.2c1.6-0.4,2.5-2,2.2-3.5c-0.3-1.4-1.7-2.4-3.1-2.2
			c-4,0.6-7.9,1.4-11.7,2.2c-1.6,0.4-2.5,2.1-2,3.6C110.5,57.7,111.6,58.6,112.8,58.7L112.8,58.7z"/>
		<path class="st1" d="M260,80.3c-3.1-2.4-6.4-4.7-9.9-6.8c-1.4-0.9-3.2-0.4-4,0.9c-0.9,1.4-0.4,3.2,0.9,4c3.3,2.1,6.5,4.2,9.4,6.5
			c0.5,0.4,1.1,0.6,1.8,0.6c0.9,0,1.8-0.4,2.3-1.2C261.5,83.2,261.3,81.3,260,80.3C260,80.3,260,80.3,260,80.3z"/>
		<path class="st1" d="M69,74.9c0.5,0,1-0.1,1.4-0.4c3.3-1.8,6.7-3.5,10.2-5.1c1.5-0.6,2.2-2.3,1.6-3.8c-0.6-1.5-2.3-2.2-3.8-1.6
			c-0.1,0-0.1,0.1-0.2,0.1c-3.7,1.7-7.2,3.4-10.7,5.3c-1.4,0.8-1.9,2.5-1.2,4c0,0,0,0,0,0C66.9,74.3,67.9,74.9,69,74.9z"/>
		<path class="st1" d="M136,55h0.3c3.8-0.4,7.6-0.6,11.5-0.8c1.6-0.1,2.9-1.4,2.8-3c-0.1-1.6-1.4-2.9-3-2.8l0,0
			c-4,0.2-7.9,0.4-11.8,0.8c-1.6,0.2-2.8,1.6-2.6,3.2C133.2,53.9,134.4,55,136,55z"/>
		<path class="st1" d="M90.3,65.2c0.3,0,0.7-0.1,1-0.2c3.5-1.3,7.2-2.5,11-3.6c1.6-0.5,2.4-2.1,2-3.6s-2.1-2.4-3.6-2l0,0
			c-3.9,1.1-7.7,2.4-11.3,3.7c-1.5,0.5-2.3,2.2-1.8,3.7c0,0,0,0,0,0C88,64.4,89.1,65.2,90.3,65.2z"/>
		<path class="st1" d="M182.3,56c3.9,0.6,7.7,1.2,11.4,1.9c0.2,0,0.4,0,0.6,0c1.4,0,2.6-1,2.9-2.4c0.3-1.6-0.7-3.1-2.3-3.5
			c-3.8-0.8-7.7-1.4-11.7-2c-1.6-0.2-3.1,0.9-3.3,2.5C179.5,54.2,180.7,55.7,182.3,56z"/>
		<path class="st2" d="M223.2,215.4c1.5-0.3,2.9-1,4-2.1c0.9-0.8,1.6-1.8,2.2-2.9c0.5-1.7,0.4-3.5-0.3-5.1c-0.2-0.4-0.4-0.8-0.6-1.2
			c0.8-1.6,0.9-3.4,0.2-5.1c-0.6-1.4-1.6-2.6-2.8-3.5c-1.5-1.1-3.4-1.5-5.3-1.2c-2.4,0.2-4.6,2.1-5.9,4c-0.3,0.4-0.5,0.8-0.7,1.3
			l-5.3,0.9l-11.8,2l-5.4,0.9c-0.3-0.4-0.7-0.7-1.2-1c-2-1.5-4.5-2.1-6.9-1.8c-1.9,0.3-3.5,1.4-4.6,2.9c-0.8,1.2-1.3,2.7-1.4,4.2
			c-0.1,1.8,0.5,3.5,1.8,4.7c-0.1,0.4-0.2,0.9-0.2,1.3c-0.2,1.8,0.3,3.5,1.4,4.9c0.8,0.9,1.8,1.6,3,2c1.4,0.6,3,0.9,4.5,0.7
			c3.5-0.4,5.8-3.4,6.4-6.7v-0.1l4.4-0.7l11.9-2l4.4-0.7c0,0,0,0.1,0,0.1C216.6,214.1,219.7,216.1,223.2,215.4z"/>
		<text transform="matrix(0.9659 -0.2589 0.2589 0.9659 80.3084 132.9693)" class="st3 st4 st5">Pet</text>
		<text transform="matrix(0.9659 -0.2589 0.2589 0.9659 26.43 228.3413)" class="st3 st4 st5 st6">Traidz</text>
	</g>
</g>
</svg>
