<svg xmlns="http://www.w3.org/2000/svg" viewBox="0 0 249.23 189.99"><defs><style>.cls-1{fill:#e9c6a8;}.cls-2{fill:#e9ab87;}.cls-3,.cls-4{font-size:65px;fill:#fff;font-family:Jokerman-Regular, Jokerman;}.cls-4{letter-spacing:0.06em;}</style></defs><title>LogoMain</title><g id="Layer_2" data-name="Layer 2"><g id="Layer_1-2" data-name="Layer 1"><path class="cls-1" d="M41.84,149.55c-2.72-2-5.31-4-7.75-6.18a2.54,2.54,0,1,0-3.35,3.83c2.58,2.25,5.26,4.45,8.14,6.51a2.34,2.34,0,0,0,1.48.48,2.53,2.53,0,0,0,2.06-1.05A2.58,2.58,0,0,0,41.84,149.55Z"/><path class="cls-1" d="M226.91,136.86a78.4,78.4,0,0,1-7.08,6.89,2.57,2.57,0,0,0-.24,3.6,2.55,2.55,0,0,0,3.59.23,89.26,89.26,0,0,0,7.47-7.32,2.53,2.53,0,1,0-3.74-3.4Z"/><path class="cls-1" d="M59,159.7c-3.06-1.49-6-3.07-8.81-4.7a2.55,2.55,0,0,0-2.58,4.41c2.92,1.72,6,3.35,9.14,4.88a2.21,2.21,0,0,0,1.1.24A2.55,2.55,0,0,0,59,159.7Z"/><path class="cls-1" d="M21,128.72a2.55,2.55,0,1,0-4.21,2.88,80.73,80.73,0,0,0,6.51,8.23,2.57,2.57,0,0,0,1.91.86,2.71,2.71,0,0,0,1.73-.67,2.52,2.52,0,0,0,.19-3.59A75.29,75.29,0,0,1,21,128.72Z"/><path class="cls-1" d="M29.59,48.59a2.51,2.51,0,0,0-3.59,0,87.42,87.42,0,0,0-6.89,7.89,2.52,2.52,0,0,0,.47,3.55,2.74,2.74,0,0,0,1.54.52,2.45,2.45,0,0,0,2-1,82.23,82.23,0,0,1,6.46-7.42A2.56,2.56,0,0,0,29.59,48.59Z"/><path class="cls-1" d="M77.51,167c-3.21-1-6.37-2.15-9.43-3.35a2.55,2.55,0,1,0-1.87,4.74Q71,170.27,76,171.86a2.27,2.27,0,0,0,.76.14,2.55,2.55,0,0,0,.77-5Z"/><path class="cls-1" d="M12.45,111.2a2.54,2.54,0,0,0-4.88,1.44,63.44,63.44,0,0,0,3.88,9.86,2.53,2.53,0,0,0,2.29,1.44,2.85,2.85,0,0,0,1.1-.24A2.54,2.54,0,0,0,16,120.3,59.46,59.46,0,0,1,12.45,111.2Z"/><path class="cls-1" d="M116.86,174.2c-3.35-.19-6.7-.48-10-.86a2.55,2.55,0,1,0-.57,5.07c3.4.39,6.8.72,10.29.91h.14a2.56,2.56,0,0,0,.15-5.12Z"/><path class="cls-1" d="M194.84,159.94c-3,1.43-6,2.72-9.14,4a2.55,2.55,0,0,0,1,4.93,2.1,2.1,0,0,0,.91-.19c3.26-1.29,6.42-2.64,9.53-4.12a2.56,2.56,0,1,0-2.25-4.59Z"/><path class="cls-1" d="M176.27,167.21c-3.16,1-6.37,1.87-9.63,2.68a2.53,2.53,0,0,0-1.86,3.07,2.59,2.59,0,0,0,2.49,2,1.46,1.46,0,0,0,.62-.1c3.4-.81,6.7-1.72,10-2.77a2.57,2.57,0,0,0,1.67-3.21A2.65,2.65,0,0,0,176.27,167.21Z"/><path class="cls-1" d="M212,149.88c-2.64,1.87-5.46,3.69-8.38,5.36a2.55,2.55,0,0,0,2.58,4.41A99.49,99.49,0,0,0,215,154a2.54,2.54,0,0,0,.63-3.54A2.65,2.65,0,0,0,212,149.88Z"/><path class="cls-1" d="M96.94,171.86c-3.3-.63-6.6-1.3-9.81-2.11a2.54,2.54,0,0,0-1.2,4.93c3.31.81,6.71,1.53,10.1,2.15a1.3,1.3,0,0,0,.43,0,2.51,2.51,0,0,0,2.49-2.1A2.43,2.43,0,0,0,96.94,171.86Z"/><path class="cls-1" d="M156.83,172c-3.26.58-6.56,1.05-9.91,1.44a2.54,2.54,0,0,0,.29,5.07h.29c3.44-.38,6.84-.91,10.24-1.48a2.56,2.56,0,0,0,2.06-3A2.58,2.58,0,0,0,156.83,172Z"/><path class="cls-1" d="M8.29,104.5a2.58,2.58,0,0,0,2.25-2.82,51,51,0,0,1-.34-6.08,54.59,54.59,0,0,1,.86-9.67A2.55,2.55,0,1,0,6,85a58.81,58.81,0,0,0-1,10.58,61,61,0,0,0,.38,6.65A2.55,2.55,0,0,0,8,104.5.3.3,0,0,0,8.29,104.5Z"/><path class="cls-1" d="M136.92,174.25c-3.21.19-6.47.29-9.72.29h-.29a2.54,2.54,0,1,0,0,5.07h.29c3.35,0,6.7-.1,10-.29a2.56,2.56,0,0,0,2.4-2.68A2.53,2.53,0,0,0,136.92,174.25Z"/><path class="cls-1" d="M241.51,119.68a2.51,2.51,0,0,0-3.4,1.14,61.91,61.91,0,0,1-5,8.38,2.53,2.53,0,0,0,.62,3.54,2.69,2.69,0,0,0,1.44.48,2.57,2.57,0,0,0,2.1-1.1,66.57,66.57,0,0,0,5.41-9.05A2.54,2.54,0,0,0,241.51,119.68Z"/><path class="cls-1" d="M170.23,22.31c3.26.86,6.47,1.86,9.58,2.92A2.51,2.51,0,0,0,183,23.65a2.52,2.52,0,0,0-1.58-3.21q-4.81-1.65-9.91-3a2.52,2.52,0,0,0-3.12,1.82A2.59,2.59,0,0,0,170.23,22.31Z"/><path class="cls-1" d="M242.71,83a54.21,54.21,0,0,1,1.44,9.57A2.55,2.55,0,0,0,246.68,95h.15a2.54,2.54,0,0,0,2.39-2.68,59.12,59.12,0,0,0-1.53-10.48,2.56,2.56,0,0,0-5,1.2Z"/><path class="cls-1" d="M130.6,16.8c3.4.05,6.7.24,10,.48h.19a2.54,2.54,0,0,0,.19-5.07c-3.39-.24-6.84-.43-10.29-.48a2.52,2.52,0,0,0-2.58,2.49A2.56,2.56,0,0,0,130.6,16.8Z"/><path class="cls-1" d="M239.6,73.77a2.54,2.54,0,0,0,2.34,1.53,2.52,2.52,0,0,0,2.35-3.54,73.46,73.46,0,0,0-4.88-9.34,2.54,2.54,0,0,0-4.31,2.68A69.43,69.43,0,0,1,239.6,73.77Z"/><path class="cls-1" d="M189.14,28.77c3.11,1.34,6.13,2.73,9.05,4.21a2.58,2.58,0,0,0,1.15.29,2.46,2.46,0,0,0,2.25-1.39,2.61,2.61,0,0,0-1.1-3.45c-3-1.58-6.18-3-9.38-4.4a2.6,2.6,0,0,0-3.36,1.34A2.64,2.64,0,0,0,189.14,28.77Z"/><path class="cls-1" d="M246.64,100.05a2.5,2.5,0,0,0-2.83,2.2,53.46,53.46,0,0,1-2.06,9.48,2.5,2.5,0,0,0,1.68,3.16,2.2,2.2,0,0,0,.76.09,2.57,2.57,0,0,0,2.45-1.77,60.58,60.58,0,0,0,2.25-10.34A2.67,2.67,0,0,0,246.64,100.05Z"/><path class="cls-1" d="M10.34,78.12a2.65,2.65,0,0,0,.87.15,2.51,2.51,0,0,0,2.39-1.68,59,59,0,0,1,4.12-8.85,2.53,2.53,0,0,0-4.41-2.49,70.08,70.08,0,0,0-4.45,9.57A2.5,2.5,0,0,0,10.34,78.12Z"/><path class="cls-1" d="M222.56,50a81,81,0,0,1,6.75,7.18,2.5,2.5,0,0,0,2,.91,2.63,2.63,0,0,0,1.63-.57,2.52,2.52,0,0,0,.33-3.59,88.19,88.19,0,0,0-7.18-7.61A2.54,2.54,0,1,0,222.56,50Z"/><path class="cls-1" d="M35.29,46.1a2.56,2.56,0,0,0,1.62-.58,92.75,92.75,0,0,1,8-5.88,2.56,2.56,0,1,0-2.83-4.26c-2.92,2-5.74,4-8.37,6.17a2.57,2.57,0,0,0-.39,3.59A2.62,2.62,0,0,0,35.29,46.1Z"/><path class="cls-1" d="M90.24,20.73a2.32,2.32,0,0,0,.58-.05c3.2-.72,6.51-1.34,9.86-1.87a2.54,2.54,0,0,0-.82-5C96.42,14.31,93,15,89.72,15.7a2.55,2.55,0,0,0,.52,5Z"/><path class="cls-1" d="M218.1,39.54c-2.72-2.06-5.55-4.07-8.56-5.94a2.54,2.54,0,0,0-2.69,4.31c2.88,1.82,5.61,3.69,8.19,5.65a2.67,2.67,0,0,0,1.53.53,2.45,2.45,0,0,0,2-1A2.52,2.52,0,0,0,218.1,39.54Z"/><path class="cls-1" d="M52.18,34.8a2.42,2.42,0,0,0,1.25-.33q4.31-2.37,8.9-4.46a2.54,2.54,0,1,0-2.06-4.64C57.07,26.81,54,28.34,51,30a2.53,2.53,0,0,0-1,3.45A2.43,2.43,0,0,0,52.18,34.8Z"/><path class="cls-1" d="M110.35,17.57h.24c3.3-.34,6.6-.53,10-.67a2.54,2.54,0,0,0-.19-5.08c-3.49.15-6.89.39-10.29.67a2.57,2.57,0,0,0-2.3,2.78A2.54,2.54,0,0,0,110.35,17.57Z"/><path class="cls-1" d="M70.71,26.42a2.58,2.58,0,0,0,.86-.14c3.07-1.15,6.27-2.15,9.53-3.11a2.54,2.54,0,0,0-1.44-4.88c-3.35.95-6.65,2.05-9.81,3.2a2.54,2.54,0,0,0-1.53,3.26A2.63,2.63,0,0,0,70.71,26.42Z"/><path class="cls-1" d="M150.61,18.38c3.35.48,6.65,1,9.86,1.68a2.07,2.07,0,0,0,.52,0,2.51,2.51,0,0,0,2.49-2.05,2.56,2.56,0,0,0-2-3q-5-1-10.19-1.72a2.55,2.55,0,0,0-2.88,2.15A2.6,2.6,0,0,0,150.61,18.38Z"/><path class="cls-2" d="M186.13,156.82a6.78,6.78,0,0,0,3.49-1.82,7.48,7.48,0,0,0,1.87-2.53,6.11,6.11,0,0,0-.29-4.41,6.45,6.45,0,0,0-.53-1.05,5.22,5.22,0,0,0,.15-4.4,7.82,7.82,0,0,0-2.4-3.07,6,6,0,0,0-4.59-1c-2.06.19-4,1.82-5.12,3.45a5.32,5.32,0,0,0-.58,1.14l-4.64.77-10.29,1.72-4.65.77a5.5,5.5,0,0,0-1-.91,7.87,7.87,0,0,0-6-1.53,6.37,6.37,0,0,0-4,2.54,7.55,7.55,0,0,0-1.24,3.63,5.2,5.2,0,0,0,1.58,4.12,4.54,4.54,0,0,0-.15,1.15,6,6,0,0,0,1.2,4.26,7.44,7.44,0,0,0,2.58,1.77,7.32,7.32,0,0,0,3.93.58c3.06-.39,5-2.92,5.55-5.8v-.09l3.78-.62,10.3-1.73,3.78-.62a.17.17,0,0,0,0,.1C180.38,155.72,183.11,157.49,186.13,156.82Z"/><text class="cls-3" transform="matrix(0.97, -0.26, 0.26, 0.97, 62.02, 85.26)">Pet</text><text class="cls-4" transform="matrix(0.97, -0.26, 0.26, 0.97, 15.22, 168.1)">Traidz</text></g></g></svg>