<svg xmlns="http://www.w3.org/2000/svg" viewBox="0 0 140.77 104.54"><defs><style>.cls-1{fill:#e9c6a8;}.cls-2{font-size:30px;fill:#fff;font-family:Jokerman-Regular, Jokerman;letter-spacing:0.04em;}.cls-3{fill:#e9ab87;}</style></defs><title>LogoWalkingTime</title><g id="Layer_2" data-name="Layer 2"><g id="Layer_1-2" data-name="Layer 1"><path class="cls-1" d="M20.53,84.74c-1.52-1.1-3-2.25-4.33-3.45a1.42,1.42,0,1,0-1.87,2.14c1.44,1.26,2.94,2.49,4.54,3.64a1.43,1.43,0,0,0,2-.33A1.43,1.43,0,0,0,20.53,84.74Z"/><path class="cls-1" d="M123.87,77.66a46.52,46.52,0,0,1-4,3.85,1.43,1.43,0,0,0-.14,2,1.39,1.39,0,0,0,1.07.48,1.43,1.43,0,0,0,.94-.35A48.93,48.93,0,0,0,126,79.55a1.41,1.41,0,1,0-2.09-1.89Z"/><path class="cls-1" d="M30.1,90.41c-1.71-.83-3.34-1.71-4.92-2.62a1.43,1.43,0,1,0-1.44,2.46c1.63,1,3.34,1.87,5.1,2.72a1.2,1.2,0,0,0,.62.14,1.41,1.41,0,0,0,1.28-.81A1.4,1.4,0,0,0,30.1,90.41Z"/><path class="cls-1" d="M8.87,73.11a1.42,1.42,0,0,0-2.35,1.61,45.77,45.77,0,0,0,3.64,4.59,1.42,1.42,0,0,0,1.07.48,1.5,1.5,0,0,0,1-.37,1.4,1.4,0,0,0,.11-2A42.6,42.6,0,0,1,8.87,73.11Z"/><path class="cls-1" d="M13.69,28.36a1.41,1.41,0,0,0-2,0A51,51,0,0,0,7.83,32.8a1.41,1.41,0,0,0,.27,2,1.48,1.48,0,0,0,.86.29,1.36,1.36,0,0,0,1.12-.56,44.74,44.74,0,0,1,3.61-4.14A1.44,1.44,0,0,0,13.69,28.36Z"/><path class="cls-1" d="M40.45,94.5c-1.8-.56-3.56-1.21-5.27-1.87a1.42,1.42,0,1,0-1,2.64q2.64,1,5.45,1.93a1.26,1.26,0,0,0,.43.08,1.42,1.42,0,0,0,.43-2.78Z"/><path class="cls-1" d="M4.12,63.33a1.42,1.42,0,0,0-2.73.8,34.82,34.82,0,0,0,2.17,5.51,1.41,1.41,0,0,0,1.28.8,1.56,1.56,0,0,0,.61-.14,1.41,1.41,0,0,0,.64-1.89A32.12,32.12,0,0,1,4.12,63.33Z"/><path class="cls-1" d="M62.42,98.51c-1.87-.11-3.74-.27-5.59-.48a1.42,1.42,0,1,0-.32,2.83c1.9.21,3.8.4,5.75.51h.08a1.43,1.43,0,0,0,.08-2.86Z"/><path class="cls-1" d="M106,90.54c-1.65.8-3.36,1.52-5.1,2.22a1.42,1.42,0,0,0-.8,1.84,1.39,1.39,0,0,0,1.33.91,1.16,1.16,0,0,0,.51-.1c1.82-.73,3.58-1.47,5.32-2.3A1.43,1.43,0,1,0,106,90.54Z"/><path class="cls-1" d="M95.59,94.6c-1.76.57-3.55,1.05-5.37,1.5a1.4,1.4,0,0,0-1,1.71,1.46,1.46,0,0,0,1.39,1.1.74.74,0,0,0,.34-.06c1.9-.45,3.75-1,5.56-1.55a1.43,1.43,0,0,0,.94-1.79A1.49,1.49,0,0,0,95.59,94.6Z"/><path class="cls-1" d="M115.56,84.93c-1.47,1-3,2.06-4.68,3a1.42,1.42,0,0,0,.72,2.65,1.5,1.5,0,0,0,.73-.19,57.59,57.59,0,0,0,4.89-3.15,1.43,1.43,0,0,0,.35-2A1.47,1.47,0,0,0,115.56,84.93Z"/><path class="cls-1" d="M51.3,97.2c-1.85-.35-3.69-.73-5.48-1.18a1.42,1.42,0,1,0-.67,2.75c1.84.46,3.74.86,5.64,1.21a1,1,0,0,0,.24,0,1.4,1.4,0,0,0,1.39-1.17A1.36,1.36,0,0,0,51.3,97.2Z"/><path class="cls-1" d="M84.74,97.25q-2.73.48-5.53.8A1.44,1.44,0,0,0,78,99.63a1.42,1.42,0,0,0,1.42,1.26h.16c1.92-.22,3.82-.51,5.72-.83a1.43,1.43,0,1,0-.51-2.81Z"/><path class="cls-1" d="M1.79,59.59A1.44,1.44,0,0,0,3.05,58a27.35,27.35,0,0,1-.19-3.4,30.46,30.46,0,0,1,.48-5.4,1.41,1.41,0,0,0-1.15-1.65A1.43,1.43,0,0,0,.53,48.71,33.89,33.89,0,0,0,0,54.61a35.22,35.22,0,0,0,.21,3.72,1.43,1.43,0,0,0,1.42,1.26A.22.22,0,0,0,1.79,59.59Z"/><path class="cls-1" d="M73.62,98.53c-1.79.11-3.61.16-5.43.16H68a1.42,1.42,0,0,0,0,2.84h.16c1.87,0,3.74-.06,5.59-.16a1.45,1.45,0,0,0,1.34-1.5A1.43,1.43,0,0,0,73.62,98.53Z"/><path class="cls-1" d="M132,68.06a1.4,1.4,0,0,0-1.9.64,35.15,35.15,0,0,1-2.81,4.68,1.43,1.43,0,0,0,.35,2,1.49,1.49,0,0,0,.8.26,1.45,1.45,0,0,0,1.18-.61,38.5,38.5,0,0,0,3-5.05A1.43,1.43,0,0,0,132,68.06Z"/><path class="cls-1" d="M92.22,13.69c1.82.48,3.61,1,5.35,1.63a1.42,1.42,0,0,0,.91-2.68C96.69,12,94.84,11.47,93,11a1.41,1.41,0,0,0-1.74,1A1.44,1.44,0,0,0,92.22,13.69Z"/><path class="cls-1" d="M132.7,47.58a31.12,31.12,0,0,1,.8,5.35,1.43,1.43,0,0,0,1.41,1.34H135a1.44,1.44,0,0,0,1.34-1.5,33.65,33.65,0,0,0-.85-5.86,1.43,1.43,0,0,0-1.72-1A1.39,1.39,0,0,0,132.7,47.58Z"/><path class="cls-1" d="M70.09,10.61c1.9,0,3.74.14,5.59.27h.1a1.42,1.42,0,0,0,.11-2.83c-1.9-.14-3.82-.24-5.75-.27A1.4,1.4,0,0,0,68.7,9.17,1.42,1.42,0,0,0,70.09,10.61Z"/><path class="cls-1" d="M131,42.42a1.44,1.44,0,0,0,1.87.75,1.45,1.45,0,0,0,.75-1.87,41,41,0,0,0-2.73-5.21,1.42,1.42,0,1,0-2.4,1.5A38.27,38.27,0,0,1,131,42.42Z"/><path class="cls-1" d="M102.78,17.3c1.74.74,3.42,1.52,5.06,2.35a1.35,1.35,0,0,0,.64.16,1.38,1.38,0,0,0,1.25-.78,1.45,1.45,0,0,0-.61-1.92c-1.69-.88-3.45-1.69-5.24-2.46a1.45,1.45,0,0,0-1.87.75A1.47,1.47,0,0,0,102.78,17.3Z"/><path class="cls-1" d="M134.89,57.1a1.39,1.39,0,0,0-1.58,1.23,29.39,29.39,0,0,1-1.15,5.29,1.4,1.4,0,0,0,.94,1.77,1.21,1.21,0,0,0,.42,0,1.44,1.44,0,0,0,1.37-1,33,33,0,0,0,1.25-5.77A1.49,1.49,0,0,0,134.89,57.1Z"/><path class="cls-1" d="M2.94,44.86a1.61,1.61,0,0,0,.48.08A1.41,1.41,0,0,0,4.76,44a32.43,32.43,0,0,1,2.3-4.94A1.41,1.41,0,1,0,4.6,37.67,38.52,38.52,0,0,0,2.11,43,1.41,1.41,0,0,0,2.94,44.86Z"/><path class="cls-1" d="M121.44,29.16a45.63,45.63,0,0,1,3.77,4,1.42,1.42,0,1,0,2.19-1.81,48.37,48.37,0,0,0-4-4.25,1.41,1.41,0,0,0-2,2.05Z"/><path class="cls-1" d="M16.87,27a1.43,1.43,0,0,0,.91-.32,53,53,0,0,1,4.46-3.29A1.42,1.42,0,1,0,20.66,21C19,22.08,17.46,23.23,16,24.43A1.43,1.43,0,0,0,16.87,27Z"/><path class="cls-1" d="M47.56,12.81a1.19,1.19,0,0,0,.32,0c1.79-.4,3.63-.75,5.5-1a1.42,1.42,0,1,0-.45-2.81C51,9.22,49.11,9.6,47.26,10a1.39,1.39,0,0,0-1.07,1.68A1.41,1.41,0,0,0,47.56,12.81Z"/><path class="cls-1" d="M119,23.31c-1.53-1.15-3.11-2.27-4.79-3.31a1.42,1.42,0,1,0-1.5,2.4c1.61,1,3.13,2.06,4.57,3.16a1.58,1.58,0,0,0,.86.29,1.36,1.36,0,0,0,1.12-.56A1.42,1.42,0,0,0,119,23.31Z"/><path class="cls-1" d="M26.3,20.66a1.41,1.41,0,0,0,.7-.18c1.6-.89,3.26-1.71,5-2.49a1.42,1.42,0,1,0-1.15-2.59c-1.79.8-3.53,1.66-5.18,2.59a1.42,1.42,0,0,0-.57,1.93A1.36,1.36,0,0,0,26.3,20.66Z"/><path class="cls-1" d="M58.78,11h.14c1.84-.19,3.69-.29,5.58-.37a1.42,1.42,0,1,0-.1-2.84c-2,.08-3.85.22-5.75.38A1.42,1.42,0,0,0,58.78,11Z"/><path class="cls-1" d="M36.65,16a1.61,1.61,0,0,0,.48-.08c1.71-.65,3.5-1.21,5.32-1.74a1.42,1.42,0,0,0-.8-2.73c-1.87.54-3.72,1.15-5.48,1.79a1.43,1.43,0,0,0-.86,1.82A1.49,1.49,0,0,0,36.65,16Z"/><path class="cls-1" d="M81.26,11.5c1.88.26,3.72.56,5.51.93a.89.89,0,0,0,.29,0,1.4,1.4,0,0,0,1.39-1.15,1.42,1.42,0,0,0-1.12-1.69q-2.81-.55-5.69-1A1.42,1.42,0,0,0,80,9.86,1.46,1.46,0,0,0,81.26,11.5Z"/><text class="cls-2" transform="matrix(0.97, -0.26, 0.26, 0.97, 13.22, 59.66)">Walking</text><path class="cls-3" d="M118.53,88.56A6.78,6.78,0,0,0,122,86.74a7.48,7.48,0,0,0,1.87-2.53,6.06,6.06,0,0,0-.29-4.41,6.84,6.84,0,0,0-.52-1,5.22,5.22,0,0,0,.14-4.4,7.89,7.89,0,0,0-2.39-3.07,6.08,6.08,0,0,0-4.6-1c-2.06.19-4,1.82-5.12,3.45a5.32,5.32,0,0,0-.58,1.14l-4.64.77L95.6,77.31,91,78.08a6,6,0,0,0-1-.91,7.87,7.87,0,0,0-6-1.53,6.37,6.37,0,0,0-4,2.54,7.65,7.65,0,0,0-1.24,3.63,5.23,5.23,0,0,0,1.58,4.12,4.54,4.54,0,0,0-.15,1.15,6,6,0,0,0,1.2,4.26A7.39,7.39,0,0,0,84,93.11a7.27,7.27,0,0,0,3.92.58c3.07-.39,5-2.92,5.55-5.8V87.8l3.79-.63,10.29-1.72,3.78-.62a.17.17,0,0,0,0,.1C112.78,87.46,115.51,89.23,118.53,88.56Z"/><text class="cls-2" transform="matrix(0.97, -0.26, 0.26, 0.97, 22.54, 94.44)">Time</text></g></g></svg>