<?xml version="1.0" encoding="utf-8"?>
<!-- Generator: Adobe Illustrator 22.1.0, SVG Export Plug-In . SVG Version: 6.00 Build 0)  -->
<svg version="1.1" id="Layer_1" xmlns="http://www.w3.org/2000/svg" xmlns:xlink="http://www.w3.org/1999/xlink" x="0px" y="0px"
	 viewBox="0 0 2048 2048" style="enable-background:new 0 0 2048 2048;" xml:space="preserve">
<style type="text/css">
	.st0{display:none;fill:#500056;stroke:#000000;stroke-miterlimit:10;}
	.st1{fill:#5CC6BC;}
	.st2{fill:#E9C6A8;}
	.st3{fill:#E9AB87;}
	.st4{fill:#FFFFFF;}
	.st5{font-family:'Jokerman-Regular';}
	.st6{font-size:308.0431px;}
	.st7{font-size:273.7083px;}
	.st8{letter-spacing:3.8;}
	.st9{opacity:0.5;fill:#FFFFFF;}
	.st10{font-family:'BerlinSansFBDemi-Bold';}
	.st11{font-size:250px;}
</style>
<title>LogoMain</title>
<rect x="899.4" y="929" class="st0" width="249.2" height="190"/>
<rect x="1.9" class="st1" width="2046.1" height="2048"/>
<g id="Layer_2_1_">
	<g id="Layer_1-2">
		<path class="st2" d="M713.4,1047.3c-9.9-9.6-19.4-19.1-28.1-29.7c-4-4.3-9.9-3.8-13.2,1c-3.3,5.2-2.9,12.9,0.7,17.2l0,0
			c9.5,11,19.4,21,29.6,31.1c1.5,1.4,3.3,2.4,5.5,2.4c2.9,0,5.8-1.9,7.7-5.2C718.5,1059.3,717.7,1051.6,713.4,1047.3z"/>
		<path class="st2" d="M1389.5,986.5c-8.1,11.5-16.8,22.5-25.9,33c-4,4.3-4.4,12-0.7,17.2c3.3,5.2,9.1,5.7,13.2,1
			c9.5-11,18.6-22.5,27.4-34.9c3.6-4.8,3.6-12.5,0-17.2c-3.6-4.8-9.5-4.8-13.2,0C1389.9,986,1389.9,986.5,1389.5,986.5L1389.5,986.5
			z"/>
		<path class="st2" d="M776.2,1096.1c-11.3-7.2-21.9-14.9-32.2-22.5c-4.4-3.3-10.2-1.4-12.8,4.3c-2.5,5.7-1.1,13.4,3.3,16.8
			c10.6,8.1,21.9,16.3,33.2,23.4c1.1,1,2.5,1.4,4,1c5.1,0,9.5-5.2,9.5-12C781.3,1102.4,779.5,1098,776.2,1096.1z"/>
		<path class="st2" d="M637.4,947.7c-2.9-5.7-8.8-7.2-12.8-3.3c-4.4,3.8-5.5,11.5-2.5,16.8c7.3,13.9,15.3,26.8,23.8,39.2
			c1.8,2.4,4.4,4.3,6.9,4.3c2.2,0,4.8-1.4,6.2-3.3c3.6-4.3,4-12,0.7-17.2l0,0C651.6,973.1,644.3,960.7,637.4,947.7z"/>
		<path class="st2" d="M668.8,564.3c-3.6-4.8-9.5-4.8-12.8,0l0,0c-9.1,12-17.5,24.4-25.2,37.8c-3.3,5.2-2.2,12.9,1.8,16.8l0,0
			c1.5,1.4,3.6,2.4,5.5,2.4c2.9,0,5.5-1.9,7.3-4.8c7.3-12.5,15.3-24.4,23.8-35.4C672.1,576.3,672.1,569.1,668.8,564.3z"/>
		<path class="st2" d="M843.8,1131.1c-11.7-4.8-23.4-10.1-34.3-16.3c-4.8-2.9-10.2,0-12.4,6.2s0,13.4,4.8,16.3
			c0.4,0,0.4,0.5,0.7,0.5c11.7,6.2,23.8,11.5,35.8,16.8c0.7,0.5,1.8,0.5,2.9,0.5c5.1,0,9.5-5.2,9.5-12
			C850.7,1137.3,847.8,1132.5,843.8,1131.1L843.8,1131.1z"/>
		<path class="st2" d="M606.3,864c-1.5-6.2-6.6-10.1-11.7-8.1c-4.8,1.9-7.7,8.6-6.2,15.3c3.6,16.3,8.4,32.1,14.2,47.4
			c1.5,4.3,4.8,6.7,8.4,6.7c1.5,0,2.9-0.5,4-1c4.8-2.9,6.6-10.1,4.4-16.3l0,0C614,893.7,609.6,878.8,606.3,864z"/>
		<path class="st2" d="M987.7,1165.5c-12.1-1-24.5-2.4-36.5-4.3c-5.1-1-9.9,3.8-10.2,11c-0.7,6.7,2.9,12.9,8.4,13.4l0,0
			c12.4,1.9,24.8,3.3,37.6,4.3h0.4c5.1,0,9.5-5.2,9.5-12C996.8,1171.3,992.8,1165.5,987.7,1165.5L987.7,1165.5z"/>
		<path class="st2" d="M1272.2,1097.1c-10.9,6.7-21.9,12.9-33.2,19.1c-4.8,2.4-7.3,9.6-5.5,15.8c1.5,4.8,5.1,8.1,9.1,7.7
			c1.1,0,2.2-0.5,3.3-1c12.1-6.2,23.4-12.5,34.7-19.6c4.8-2.4,6.9-10.1,5.1-16.3c-1.8-6.2-7.7-9.1-12.4-6.7
			C1273.3,1097.1,1273,1097.1,1272.2,1097.1L1272.2,1097.1z"/>
		<path class="st2" d="M1204.7,1132c-11.7,4.8-23.4,9.1-35.1,12.9c-5.1,1.4-8.1,8.1-6.9,14.9l0,0c1.1,5.7,4.8,9.6,9.1,9.6
			c0.7,0,1.5,0,2.2-0.5c12.4-3.8,24.5-8.1,36.5-13.4c4.8-1.9,7.7-9.1,6.2-15.3C1214.9,1133.5,1209.4,1130.1,1204.7,1132z"/>
		<path class="st2" d="M1335.1,1049.2c-9.5,9.1-20.1,17.7-30.7,25.8c-4.4,3.3-5.8,11-3.3,16.8c2.5,5.7,8.4,7.7,12.8,4.3
			c10.9-8.1,21.9-17.2,32.2-27.3c4.4-3.8,5.1-11.5,2.2-16.8l0,0C1345.3,1046.3,1339.5,1045.4,1335.1,1049.2z"/>
		<path class="st2" d="M914.6,1154.1c-12.1-2.9-24.1-6.2-35.8-10.1c-5.1-1.4-9.9,2.9-10.9,9.6c-0.7,6.2,1.8,12,6.6,13.9
			c12.1,3.8,24.5,7.2,36.9,10.1c0.4,0,1.1,0,1.5,0c4.4,0,8.4-4.3,9.1-10.1C923,1161.7,920.1,1155.5,914.6,1154.1
			C915,1154.5,915,1154.5,914.6,1154.1z"/>
		<path class="st2" d="M1133.4,1155c-12.1,2.9-24.1,5.2-36.2,6.7c-5.1,0.5-8.8,6.2-8.4,12.9c0.4,6.2,4.8,11.5,9.5,11h1.1
			c12.4-1.9,24.8-4.3,37.2-7.2c5.1-1.4,8.4-7.7,7.7-14.4l0,0C1143.3,1157.9,1138.5,1154.1,1133.4,1155z"/>
		<path class="st2" d="M591,831.9c5.1-1,8.8-6.7,8.4-13.4c-0.7-9.6-1.1-19.1-1.1-29.2c0-15.3,1.1-31.1,3.3-46.4
			c1.1-6.7-2.5-12.9-7.7-14.4c-5.1-1.4-9.9,3.3-10.9,10.1l0,0c-2.5,16.8-3.6,33.5-3.6,50.7c0,10.5,0.4,21,1.5,32.1
			c0.4,6.2,4.8,11,9.5,11C590.3,831.9,590.6,831.9,591,831.9z"/>
		<path class="st2" d="M1060.7,1165.5c-11.7,1-23.8,1.4-35.4,1.4h-1.1c-5.1-0.5-9.5,4.8-9.9,11.5c-0.4,6.7,3.6,12.5,8.8,12.9
			c0.4,0,0.7,0,1.1,0h1.1c12.1,0,24.5-0.5,36.5-1.4c5.1-0.5,9.1-6.2,8.8-12.9C1070.3,1170.3,1065.8,1165.5,1060.7,1165.5
			L1060.7,1165.5z"/>
		<path class="st2" d="M1442.9,904.6c-4.4-2.9-9.9-0.5-12.4,5.2l0,0c-5.1,13.9-11.3,27.3-18.3,40.2c-2.9,5.2-1.8,12.9,2.2,16.8l0,0
			c1.5,1.4,3.3,2.4,5.1,2.4c2.9,0,5.8-1.9,7.7-5.2c7.3-13.9,13.9-28.3,19.7-43.6C1449.4,914.7,1447.6,907.5,1442.9,904.6z"/>
		<path class="st2" d="M1182.4,438.4c12.1,4.3,23.8,9.1,35.1,13.9c4.8,1.9,9.9-1.4,11.7-7.7l0,0c1.8-6.2-0.7-13.4-5.8-15.3l0,0
			c-11.7-5.2-23.8-10.1-36.2-14.4c-4.8-1.9-9.9,1.9-11.3,8.6c0,0,0,0,0,0.5C1174.7,430.3,1177.6,436.5,1182.4,438.4z"/>
		<path class="st2" d="M1447.2,729c2.9,14.9,4.4,30.2,5.1,46c0.4,6.7,4.4,11.5,9.1,11.5h0.4c5.1-0.5,9.1-6.2,8.8-12.9
			c-0.7-16.8-2.5-33.5-5.5-50.3c-1.1-6.7-6.2-10.5-11.3-9.1C1449,716.1,1446.1,722.3,1447.2,729L1447.2,729z"/>
		<path class="st2" d="M1037.7,412.1c12.4,0,24.5,1,36.5,2.4h0.7c5.1,0,9.1-5.7,9.1-12.5c0-6.2-3.6-11.5-8.4-12
			c-12.4-1-24.8-1.9-37.6-2.4c-5.1,0-9.1,5.2-9.5,12l0,0C1028.6,406.4,1032.6,412.1,1037.7,412.1z"/>
		<path class="st2" d="M1435.9,685c1.5,4.3,4.8,7.2,8.4,7.2c5.1,0,9.1-5.2,9.5-12c0-1.9-0.4-3.3-0.7-5.2
			c-5.1-15.3-10.9-30.2-17.9-44.5c-2.9-5.7-8.8-7.2-12.8-3.3c-4,3.3-5.1,10.5-2.9,15.8C1425.7,656.7,1431.2,670.6,1435.9,685z"/>
		<path class="st2" d="M1251.4,469.5c11.3,6.2,22.3,12.9,33.2,20.1c1.5,1,2.5,1.4,4,1.4c3.6,0,6.6-2.4,8.4-6.7
			c2.2-6.2,0.4-13.4-4-16.8c-10.9-7.7-22.6-14.4-34.3-21c-4.8-2.4-10.2,0.5-12.4,6.2C1244.5,459.5,1246.7,466.7,1251.4,469.5z"/>
		<path class="st2" d="M1461.4,810.4c-5.1-1-9.5,3.8-10.2,10.1c0,0,0,0,0,0.5c-1.5,15.3-4,30.7-7.7,45.5c-1.5,6.2,1.1,12.9,5.8,14.9
			c0,0,0,0,0.4,0c0.7,0.5,1.8,0.5,2.9,0.5c4,0,7.7-3.3,8.8-8.6c4-16.3,6.6-32.6,8.4-49.3C1470.2,817.5,1466.6,811.8,1461.4,810.4z"
			/>
		<path class="st2" d="M598.3,705.5c1.1,0.5,2.2,0.5,3.3,1c4,0,7.3-3.3,8.8-8.1c4-14.9,9.1-28.7,15-42.1c2.5-5.7,1.1-13.4-3.6-16.3
			s-10.2-1.4-12.4,4.8c-6.2,14.9-11.7,30.2-16.1,46c-1.8,6.2,0.4,12.9,5.1,15.8C598.3,705.5,598.3,705.5,598.3,705.5z"/>
		<path class="st2" d="M1373.8,571c8.8,11,16.8,22.5,24.8,34.5c1.8,2.9,4.4,4.3,7.3,4.3c2.2,0,4.4-1,5.8-2.9c4-4.3,4.4-12,1.5-16.8
			l0,0c-8.1-12.9-16.8-24.9-26.3-36.4c-3.6-4.8-9.5-4.3-13.2,0.5C1369.8,558.6,1369.8,566.3,1373.8,571L1373.8,571z"/>
		<path class="st2" d="M689.6,552.3c2.2,0,4.4-1,5.8-2.9c9.5-10.1,19-19.6,29.2-28.3c4.4-3.3,5.8-11,3.3-16.8
			c-2.5-5.7-8.4-7.7-12.8-4.3c-0.4,0-0.4,0.5-0.7,0.5c-10.6,9.6-20.8,19.1-30.7,29.7c-4,4.3-4.8,12-1.5,17.2
			C684.1,550.4,686.7,552.3,689.6,552.3z"/>
		<path class="st2" d="M890.2,430.8c0.7,0,1.5,0,2.2,0c11.7-3.3,23.8-6.2,36.2-9.1c5.1-1.4,8.1-8.1,6.9-14.9
			c-1.1-5.7-5.1-10.1-9.9-9.1c-12.4,2.4-25.2,5.7-36.9,9.1c-5.1,1.9-7.7,8.6-6.6,14.9C882.9,427,886.5,430.3,890.2,430.8
			L890.2,430.8z"/>
		<path class="st2" d="M1357.3,520.7c-9.9-10.1-20.5-19.6-31.4-28.3c-4.4-3.3-10.2-1.9-12.8,3.8s-1.5,13.4,2.9,16.8
			c10.6,8.6,20.5,17.7,29.9,27.3c1.5,1.4,3.6,2.4,5.5,2.4c2.9,0,5.5-1.9,7.3-4.8C1362.1,532.7,1361.4,525.1,1357.3,520.7
			L1357.3,520.7z"/>
		<path class="st2" d="M751.3,498.3c1.5,0,3.3-0.5,4.8-1.4c10.6-7.7,21.2-14.9,32.5-21.5c4.8-2.4,6.9-9.6,5.1-15.8
			s-7.3-9.1-12.1-6.7c-0.4,0-0.4,0-0.7,0.5c-11.7,6.7-23,14.4-34,22c-4.4,3.3-6.2,10.5-3.6,16.3l0,0
			C744.8,495.9,748.1,498.3,751.3,498.3z"/>
		<path class="st2" d="M963.9,415.9h0.7c12.1-1.4,24.1-2.4,36.5-3.3c5.1-0.5,9.1-5.7,8.8-12.5c-0.4-6.7-4.4-12-9.5-11.5l0,0
			c-12.8,0.5-25.2,1.9-37.6,3.3c-5.1,0.5-8.8,6.7-8.4,13.4C954.8,411.2,958.8,415.9,963.9,415.9z"/>
		<path class="st2" d="M818.9,458.1c1.1,0,2.2,0,3.3-0.5c11.3-5.2,23-10.1,34.7-14.9c4.8-1.9,7.7-8.6,6.2-15.3
			c-1.5-6.2-6.6-10.1-11.7-8.1l0,0c-12.1,4.8-24.5,9.6-35.8,15.3c-4.8,2.4-7.3,9.1-5.5,15.3l0,0
			C811.6,454.7,815.3,458.1,818.9,458.1z"/>
		<path class="st2" d="M1110.8,419.8c12.4,2.4,24.1,4.8,36.2,8.1c0.7,0,1.1,0,1.8,0c4.4,0,8.4-4.3,9.1-9.6
			c1.1-6.7-2.2-12.9-7.3-14.4c-12.1-3.3-24.5-5.7-37.2-8.1c-5.1-1-9.9,3.8-10.6,10.5C1102,412.1,1105.7,418.8,1110.8,419.8z"/>
		<path class="st3" d="M1283.2,1071.2c6.9-1.9,13.5-6.2,18.6-12.9c4.4-4.8,7.7-11,9.9-17.7c2.5-10.1,1.8-21-1.5-30.7
			c-0.7-2.4-1.8-4.8-2.9-7.2c3.6-9.6,4-21,0.7-30.7c-2.9-8.6-7.3-15.8-12.8-21.5c-6.9-6.7-16.1-9.1-24.5-7.2
			c-10.9,1.4-21.2,12.9-27.4,23.9c-1.1,2.4-2.2,5.2-2.9,8.1l-24.8,5.2l-54.8,12L1136,998c-1.5-2.4-3.3-4.3-5.5-6.2
			c-9.1-9.1-20.8-12.9-32.2-10.5c-8.8,1.9-16.1,8.6-21.2,17.7c-4,7.7-6.2,16.3-6.6,25.4c-0.7,10.5,2.5,21.5,8.4,28.7
			c-0.4,2.4-0.7,5.2-0.7,8.1c-0.7,10.5,1.5,21,6.6,29.7c4,5.2,8.4,9.6,13.9,12.5c6.6,3.8,13.9,5.2,20.8,3.8
			c16.4-2.9,26.6-20.6,29.6-40.7v-0.5l20.1-4.3l54.8-12l20.1-4.3v0.5C1252.5,1063.1,1267.1,1075.5,1283.2,1071.2z"/>
		<text transform="matrix(0.7477 -0.2626 0.2004 0.9797 787.2219 739.7474)" class="st4 st5 st6">Pet</text>
		<text transform="matrix(0.7477 -0.2626 0.2004 0.9797 616.2714 1136.2765)" class="st4 st5 st7 st8">LaughZ</text>
	</g>
</g>
<text transform="matrix(1 0 0 1 494.4624 1500)" class="st9 st10 st11">Loading...</text>
</svg>
