<?xml version="1.0" encoding="utf-8"?>
<!-- Generator: Adobe Illustrator 22.1.0, SVG Export Plug-In . SVG Version: 6.00 Build 0)  -->
<svg version="1.1" id="Layer_1" xmlns="http://www.w3.org/2000/svg" xmlns:xlink="http://www.w3.org/1999/xlink" x="0px" y="0px"
	 viewBox="0 0 249.2 190" style="enable-background:new 0 0 249.2 190;" xml:space="preserve">
<style type="text/css">
	.st0{display:none;fill:#500056;stroke:#000000;stroke-miterlimit:10;}
	.st1{fill:#E9C6A8;}
	.st2{fill:#E9AB87;}
	.st3{fill:#FFFFFF;}
	.st4{font-family:'Jokerman-Regular';}
	.st5{font-size:65.2757px;}
	.st6{font-size:58px;}
	.st7{letter-spacing:1;}
</style>
<title>LogoMain</title>
<rect class="st0" width="249.2" height="190"/>
<g id="Layer_2_1_">
	<g id="Layer_1-2">
		<path class="st1" d="M39.3,149.6c-2.7-2-5.3-4-7.7-6.2c-1.1-0.9-2.7-0.8-3.6,0.2c-0.9,1.1-0.8,2.7,0.2,3.6l0,0
			c2.6,2.3,5.3,4.4,8.1,6.5c0.4,0.3,0.9,0.5,1.5,0.5c0.8,0,1.6-0.4,2.1-1.1C40.7,152.1,40.5,150.5,39.3,149.6z"/>
		<path class="st1" d="M224.4,136.9c-2.2,2.4-4.6,4.7-7.1,6.9c-1.1,0.9-1.2,2.5-0.2,3.6c0.9,1.1,2.5,1.2,3.6,0.2
			c2.6-2.3,5.1-4.7,7.5-7.3c1-1,1-2.6,0-3.6s-2.6-1-3.6,0C224.5,136.8,224.5,136.9,224.4,136.9L224.4,136.9z"/>
		<path class="st1" d="M56.5,159.8c-3.1-1.5-6-3.1-8.8-4.7c-1.2-0.7-2.8-0.3-3.5,0.9s-0.3,2.8,0.9,3.5c2.9,1.7,6,3.4,9.1,4.9
			c0.3,0.2,0.7,0.3,1.1,0.2c1.4,0,2.6-1.1,2.6-2.5C57.9,161.1,57.4,160.2,56.5,159.8z"/>
		<path class="st1" d="M18.5,128.8c-0.8-1.2-2.4-1.5-3.5-0.7c-1.2,0.8-1.5,2.4-0.7,3.5c2,2.9,4.2,5.6,6.5,8.2
			c0.5,0.5,1.2,0.9,1.9,0.9c0.6,0,1.3-0.3,1.7-0.7c1-0.9,1.1-2.5,0.2-3.6l0,0C22.4,134.1,20.4,131.5,18.5,128.8z"/>
		<path class="st1" d="M27.1,48.7c-1-1-2.6-1-3.5,0l0,0c-2.5,2.5-4.8,5.1-6.9,7.9c-0.9,1.1-0.6,2.7,0.5,3.5l0,0
			c0.4,0.3,1,0.5,1.5,0.5c0.8,0,1.5-0.4,2-1c2-2.6,4.2-5.1,6.5-7.4C28,51.2,28,49.7,27.1,48.7z"/>
		<path class="st1" d="M75,167.1c-3.2-1-6.4-2.1-9.4-3.4c-1.3-0.6-2.8,0-3.4,1.3c-0.6,1.3,0,2.8,1.3,3.4c0.1,0,0.1,0.1,0.2,0.1
			c3.2,1.3,6.5,2.4,9.8,3.5c0.2,0.1,0.5,0.1,0.8,0.1c1.4,0,2.6-1.1,2.6-2.5C76.9,168.4,76.1,167.4,75,167.1L75,167.1z"/>
		<path class="st1" d="M10,111.3c-0.4-1.3-1.8-2.1-3.2-1.7c-1.3,0.4-2.1,1.8-1.7,3.2c1,3.4,2.3,6.7,3.9,9.9c0.4,0.9,1.3,1.4,2.3,1.4
			c0.4,0,0.8-0.1,1.1-0.2c1.3-0.6,1.8-2.1,1.2-3.4l0,0C12.1,117.5,10.9,114.4,10,111.3z"/>
		<path class="st1" d="M114.4,174.3c-3.3-0.2-6.7-0.5-10-0.9c-1.4-0.2-2.7,0.8-2.8,2.3c-0.2,1.4,0.8,2.7,2.3,2.8l0,0
			c3.4,0.4,6.8,0.7,10.3,0.9h0.1c1.4,0,2.6-1.1,2.6-2.5C116.9,175.5,115.8,174.3,114.4,174.3L114.4,174.3z"/>
		<path class="st1" d="M192.3,160c-3,1.4-6,2.7-9.1,4c-1.3,0.5-2,2-1.5,3.3c0.4,1,1.4,1.7,2.5,1.6c0.3,0,0.6-0.1,0.9-0.2
			c3.3-1.3,6.4-2.6,9.5-4.1c1.3-0.5,1.9-2.1,1.4-3.4s-2.1-1.9-3.4-1.4C192.6,160,192.5,160,192.3,160L192.3,160z"/>
		<path class="st1" d="M173.8,167.3c-3.2,1-6.4,1.9-9.6,2.7c-1.4,0.3-2.2,1.7-1.9,3.1l0,0c0.3,1.2,1.3,2,2.5,2c0.2,0,0.4,0,0.6-0.1
			c3.4-0.8,6.7-1.7,10-2.8c1.3-0.4,2.1-1.9,1.7-3.2C176.6,167.6,175.1,166.9,173.8,167.3z"/>
		<path class="st1" d="M209.5,150c-2.6,1.9-5.5,3.7-8.4,5.4c-1.2,0.7-1.6,2.3-0.9,3.5c0.7,1.2,2.3,1.6,3.5,0.9c3-1.7,6-3.6,8.8-5.7
			c1.2-0.8,1.4-2.4,0.6-3.5l0,0C212.3,149.4,210.7,149.2,209.5,150z"/>
		<path class="st1" d="M94.4,171.9c-3.3-0.6-6.6-1.3-9.8-2.1c-1.4-0.3-2.7,0.6-3,2c-0.2,1.3,0.5,2.5,1.8,2.9
			c3.3,0.8,6.7,1.5,10.1,2.1c0.1,0,0.3,0,0.4,0c1.2,0,2.3-0.9,2.5-2.1C96.7,173.5,95.9,172.2,94.4,171.9
			C94.5,172,94.5,172,94.4,171.9z"/>
		<path class="st1" d="M154.3,172.1c-3.3,0.6-6.6,1.1-9.9,1.4c-1.4,0.1-2.4,1.3-2.3,2.7c0.1,1.3,1.3,2.4,2.6,2.3h0.3
			c3.4-0.4,6.8-0.9,10.2-1.5c1.4-0.3,2.3-1.6,2.1-3l0,0C157,172.7,155.7,171.9,154.3,172.1z"/>
		<path class="st1" d="M5.8,104.6c1.4-0.2,2.4-1.4,2.3-2.8c-0.2-2-0.3-4-0.3-6.1c0-3.2,0.3-6.5,0.9-9.7C9,84.6,8,83.3,6.6,83
			s-2.7,0.7-3,2.1l0,0c-0.7,3.5-1,7-1,10.6c0,2.2,0.1,4.4,0.4,6.7c0.1,1.3,1.3,2.3,2.6,2.3C5.6,104.6,5.7,104.6,5.8,104.6z"/>
		<path class="st1" d="M134.4,174.3c-3.2,0.2-6.5,0.3-9.7,0.3h-0.3c-1.4-0.1-2.6,1-2.7,2.4s1,2.6,2.4,2.7c0.1,0,0.2,0,0.3,0h0.3
			c3.3,0,6.7-0.1,10-0.3c1.4-0.1,2.5-1.3,2.4-2.7S135.8,174.3,134.4,174.3L134.4,174.3z"/>
		<path class="st1" d="M239,119.8c-1.2-0.6-2.7-0.1-3.4,1.1l0,0c-1.4,2.9-3.1,5.7-5,8.4c-0.8,1.1-0.5,2.7,0.6,3.5l0,0
			c0.4,0.3,0.9,0.5,1.4,0.5c0.8,0,1.6-0.4,2.1-1.1c2-2.9,3.8-5.9,5.4-9.1C240.8,121.9,240.3,120.4,239,119.8z"/>
		<path class="st1" d="M167.7,22.4c3.3,0.9,6.5,1.9,9.6,2.9c1.3,0.4,2.7-0.3,3.2-1.6l0,0c0.5-1.3-0.2-2.8-1.6-3.2l0,0
			c-3.2-1.1-6.5-2.1-9.9-3c-1.3-0.4-2.7,0.4-3.1,1.8c0,0,0,0,0,0.1C165.6,20.7,166.4,22,167.7,22.4z"/>
		<path class="st1" d="M240.2,83.1c0.8,3.1,1.2,6.3,1.4,9.6c0.1,1.4,1.2,2.4,2.5,2.4h0.1c1.4-0.1,2.5-1.3,2.4-2.7
			c-0.2-3.5-0.7-7-1.5-10.5c-0.3-1.4-1.7-2.2-3.1-1.9C240.7,80.4,239.9,81.7,240.2,83.1L240.2,83.1z"/>
		<path class="st1" d="M128.1,16.9c3.4,0,6.7,0.2,10,0.5h0.2c1.4,0,2.5-1.2,2.5-2.6c0-1.3-1-2.4-2.3-2.5c-3.4-0.2-6.8-0.4-10.3-0.5
			c-1.4,0-2.5,1.1-2.6,2.5l0,0C125.6,15.7,126.7,16.9,128.1,16.9z"/>
		<path class="st1" d="M237.1,73.9c0.4,0.9,1.3,1.5,2.3,1.5c1.4,0,2.5-1.1,2.6-2.5c0-0.4-0.1-0.7-0.2-1.1c-1.4-3.2-3-6.3-4.9-9.3
			c-0.8-1.2-2.4-1.5-3.5-0.7c-1.1,0.7-1.4,2.2-0.8,3.3C234.3,68,235.8,70.9,237.1,73.9z"/>
		<path class="st1" d="M186.6,28.9c3.1,1.3,6.1,2.7,9.1,4.2c0.4,0.2,0.7,0.3,1.1,0.3c1,0,1.8-0.5,2.3-1.4c0.6-1.3,0.1-2.8-1.1-3.5
			c-3-1.6-6.2-3-9.4-4.4c-1.3-0.5-2.8,0.1-3.4,1.3C184.7,26.8,185.3,28.3,186.6,28.9z"/>
		<path class="st1" d="M244.1,100.1c-1.4-0.2-2.6,0.8-2.8,2.1c0,0,0,0,0,0.1c-0.4,3.2-1.1,6.4-2.1,9.5c-0.4,1.3,0.3,2.7,1.6,3.1
			c0,0,0,0,0.1,0c0.2,0.1,0.5,0.1,0.8,0.1c1.1,0,2.1-0.7,2.4-1.8c1.1-3.4,1.8-6.8,2.3-10.3C246.5,101.6,245.5,100.4,244.1,100.1z"/>
		<path class="st1" d="M7.8,78.2c0.3,0.1,0.6,0.1,0.9,0.2c1.1,0,2-0.7,2.4-1.7c1.1-3.1,2.5-6,4.1-8.8c0.7-1.2,0.3-2.8-1-3.4
			s-2.8-0.3-3.4,1c-1.7,3.1-3.2,6.3-4.4,9.6c-0.5,1.3,0.1,2.7,1.4,3.3C7.8,78.2,7.8,78.2,7.8,78.2z"/>
		<path class="st1" d="M220.1,50.1c2.4,2.3,4.6,4.7,6.8,7.2c0.5,0.6,1.2,0.9,2,0.9c0.6,0,1.2-0.2,1.6-0.6c1.1-0.9,1.2-2.5,0.4-3.5
			l0,0c-2.2-2.7-4.6-5.2-7.2-7.6c-1-1-2.6-0.9-3.6,0.1C219,47.5,219,49.1,220.1,50.1L220.1,50.1z"/>
		<path class="st1" d="M32.8,46.2c0.6,0,1.2-0.2,1.6-0.6c2.6-2.1,5.2-4.1,8-5.9c1.2-0.7,1.6-2.3,0.9-3.5c-0.7-1.2-2.3-1.6-3.5-0.9
			c-0.1,0-0.1,0.1-0.2,0.1c-2.9,2-5.7,4-8.4,6.2c-1.1,0.9-1.3,2.5-0.4,3.6C31.3,45.8,32,46.2,32.8,46.2z"/>
		<path class="st1" d="M87.7,20.8c0.2,0,0.4,0,0.6,0c3.2-0.7,6.5-1.3,9.9-1.9c1.4-0.3,2.2-1.7,1.9-3.1c-0.3-1.2-1.4-2.1-2.7-1.9
			c-3.4,0.5-6.9,1.2-10.1,1.9c-1.4,0.4-2.1,1.8-1.8,3.1C85.7,20,86.7,20.7,87.7,20.8L87.7,20.8z"/>
		<path class="st1" d="M215.6,39.6c-2.7-2.1-5.6-4.1-8.6-5.9c-1.2-0.7-2.8-0.4-3.5,0.8s-0.4,2.8,0.8,3.5c2.9,1.8,5.6,3.7,8.2,5.7
			c0.4,0.3,1,0.5,1.5,0.5c0.8,0,1.5-0.4,2-1C216.9,42.1,216.7,40.5,215.6,39.6L215.6,39.6z"/>
		<path class="st1" d="M49.7,34.9c0.4,0,0.9-0.1,1.3-0.3c2.9-1.6,5.8-3.1,8.9-4.5c1.3-0.5,1.9-2,1.4-3.3s-2-1.9-3.3-1.4
			c-0.1,0-0.1,0-0.2,0.1c-3.2,1.4-6.3,3-9.3,4.6c-1.2,0.7-1.7,2.2-1,3.4l0,0C47.9,34.4,48.8,34.9,49.7,34.9z"/>
		<path class="st1" d="M107.9,17.7h0.2c3.3-0.3,6.6-0.5,10-0.7c1.4-0.1,2.5-1.2,2.4-2.6s-1.2-2.5-2.6-2.4l0,0
			c-3.5,0.1-6.9,0.4-10.3,0.7c-1.4,0.1-2.4,1.4-2.3,2.8C105.4,16.7,106.5,17.7,107.9,17.7z"/>
		<path class="st1" d="M68.2,26.5c0.3,0,0.6,0,0.9-0.1c3.1-1.1,6.3-2.1,9.5-3.1c1.3-0.4,2.1-1.8,1.7-3.2c-0.4-1.3-1.8-2.1-3.2-1.7
			l0,0c-3.3,1-6.7,2-9.8,3.2c-1.3,0.5-2,1.9-1.5,3.2l0,0C66.2,25.8,67.2,26.5,68.2,26.5z"/>
		<path class="st1" d="M148.1,18.5c3.4,0.5,6.6,1,9.9,1.7c0.2,0,0.3,0,0.5,0c1.2,0,2.3-0.9,2.5-2c0.3-1.4-0.6-2.7-2-3
			c-3.3-0.7-6.7-1.2-10.2-1.7c-1.4-0.2-2.7,0.8-2.9,2.2C145.7,16.9,146.7,18.3,148.1,18.5z"/>
		<path class="st2" d="M195.3,154.6c1.9-0.4,3.7-1.3,5.1-2.7c1.2-1,2.1-2.3,2.7-3.7c0.7-2.1,0.5-4.4-0.4-6.4c-0.2-0.5-0.5-1-0.8-1.5
			c1-2,1.1-4.4,0.2-6.4c-0.8-1.8-2-3.3-3.5-4.5c-1.9-1.4-4.4-1.9-6.7-1.5c-3,0.3-5.8,2.7-7.5,5c-0.3,0.5-0.6,1.1-0.8,1.7l-6.8,1.1
			l-15,2.5l-6.8,1.1c-0.4-0.5-0.9-0.9-1.5-1.3c-2.5-1.9-5.7-2.7-8.8-2.2c-2.4,0.4-4.4,1.8-5.8,3.7c-1.1,1.6-1.7,3.4-1.8,5.3
			c-0.2,2.2,0.7,4.5,2.3,6c-0.1,0.5-0.2,1.1-0.2,1.7c-0.2,2.2,0.4,4.4,1.8,6.2c1.1,1.1,2.3,2,3.8,2.6c1.8,0.8,3.8,1.1,5.7,0.8
			c4.5-0.6,7.3-4.3,8.1-8.5v-0.1l5.5-0.9l15-2.5l5.5-0.9v0.1C186.9,152.9,190.9,155.5,195.3,154.6z"/>
		<text transform="matrix(0.9659 -0.2589 0.2589 0.9659 59.5225 85.3481)" class="st3 st4 st5">Pet</text>
		<text transform="matrix(0.9659 -0.2589 0.2589 0.9659 12.7229 168.1886)" class="st3 st4 st6 st7">LaughZ</text>
	</g>
</g>
</svg>
