<?xml version="1.0" encoding="utf-8"?>
<!-- Generator: Adobe Illustrator 22.1.0, SVG Export Plug-In . SVG Version: 6.00 Build 0)  -->
<svg version="1.1" id="Layer_1" xmlns="http://www.w3.org/2000/svg" xmlns:xlink="http://www.w3.org/1999/xlink" x="0px" y="0px"
	 viewBox="0 0 1024 1024" style="enable-background:new 0 0 1024 1024;" xml:space="preserve">
<style type="text/css">
	.st0{display:none;fill:#500056;stroke:#000000;stroke-miterlimit:10;}
	.st1{fill:#5CC6BC;}
	.st2{fill:#E9C6A8;}
	.st3{fill:#E9AB87;}
	.st4{fill:#FFFFFF;}
	.st5{font-family:'Jokerman-Regular';}
	.st6{font-size:346.3673px;}
	.st7{font-size:307.7609px;}
	.st8{letter-spacing:3.8;}
</style>
<title>LogoMain</title>
<rect x="387.4" y="417" class="st0" width="249.2" height="190"/>
<rect class="st1" width="1024" height="1024"/>
<g id="Layer_2_1_">
	<g id="Layer_1-2">
		<path class="st2" d="M160.6,806.6c-11.1-10.8-21.8-21.5-31.7-33.4c-4.5-4.8-11.1-4.3-14.8,1.1c-3.7,5.9-3.3,14.5,0.8,19.4l0,0
			c10.7,12.4,21.8,23.7,33.3,35c1.6,1.6,3.7,2.7,6.2,2.7c3.3,0,6.6-2.2,8.6-5.9C166.4,820,165.5,811.4,160.6,806.6z"/>
		<path class="st2" d="M922,738.2c-9,12.9-18.9,25.3-29.2,37.1c-4.5,4.8-4.9,13.5-0.8,19.4c3.7,5.9,10.3,6.5,14.8,1.1
			c10.7-12.4,21-25.3,30.9-39.3c4.1-5.4,4.1-14,0-19.4c-4.1-5.4-10.7-5.4-14.8,0C922.4,737.7,922.4,738.2,922,738.2L922,738.2z"/>
		<path class="st2" d="M231.3,861.5c-12.8-8.1-24.7-16.7-36.2-25.3c-4.9-3.8-11.5-1.6-14.4,4.8c-2.9,6.5-1.2,15.1,3.7,18.8
			c11.9,9.1,24.7,18.3,37.4,26.4c1.2,1.1,2.9,1.6,4.5,1.1c5.8,0,10.7-5.9,10.7-13.5C237.1,868.5,235,863.6,231.3,861.5z"/>
		<path class="st2" d="M75,694.7c-3.3-6.5-9.9-8.1-14.4-3.8c-4.9,4.3-6.2,12.9-2.9,18.8c8.2,15.6,17.3,30.1,26.7,44.1
			c2.1,2.7,4.9,4.8,7.8,4.8c2.5,0,5.3-1.6,7-3.8c4.1-4.8,4.5-13.5,0.8-19.4l0,0C91.1,723.2,82.8,709.2,75,694.7z"/>
		<path class="st2" d="M110.4,263.6c-4.1-5.4-10.7-5.4-14.4,0l0,0C85.7,277,76.3,291,67.6,306.1c-3.7,5.9-2.5,14.5,2.1,18.8l0,0
			c1.6,1.6,4.1,2.7,6.2,2.7c3.3,0,6.2-2.2,8.2-5.4c8.2-14,17.3-27.4,26.7-39.8C114.1,277,114.1,269,110.4,263.6z"/>
		<path class="st2" d="M307.4,900.8c-13.2-5.4-26.3-11.3-38.7-18.3c-5.3-3.2-11.5,0-14,7c-2.5,7,0,15.1,5.3,18.3
			c0.4,0,0.4,0.5,0.8,0.5c13.2,7,26.7,12.9,40.3,18.8c0.8,0.5,2.1,0.5,3.3,0.5c5.8,0,10.7-5.9,10.7-13.5
			C315.3,907.8,312,902.4,307.4,900.8L307.4,900.8z"/>
		<path class="st2" d="M40.1,600.5c-1.6-7-7.4-11.3-13.2-9.1c-5.3,2.2-8.6,9.7-7,17.2c4.1,18.3,9.5,36.1,16,53.3
			c1.6,4.8,5.3,7.5,9.5,7.5c1.6,0,3.3-0.5,4.5-1.1c5.3-3.2,7.4-11.3,4.9-18.3l0,0C48.7,633.8,43.8,617.2,40.1,600.5z"/>
		<path class="st2" d="M469.5,939.5c-13.6-1.1-27.6-2.7-41.1-4.8c-5.8-1.1-11.1,4.3-11.5,12.4c-0.8,7.5,3.3,14.5,9.5,15.1l0,0
			c14,2.2,28,3.8,42.4,4.8h0.4c5.8,0,10.7-5.9,10.7-13.5C479.8,946,475.3,939.5,469.5,939.5L469.5,939.5z"/>
		<path class="st2" d="M789.9,862.6c-12.3,7.5-24.7,14.5-37.4,21.5c-5.3,2.7-8.2,10.8-6.2,17.8c1.6,5.4,5.8,9.1,10.3,8.6
			c1.2,0,2.5-0.5,3.7-1.1c13.6-7,26.3-14,39.1-22.1c5.3-2.7,7.8-11.3,5.8-18.3c-2.1-7-8.6-10.2-14-7.5
			C791.2,862.6,790.8,862.6,789.9,862.6L789.9,862.6z"/>
		<path class="st2" d="M713.8,901.8c-13.2,5.4-26.3,10.2-39.5,14.5c-5.8,1.6-9,9.1-7.8,16.7l0,0c1.2,6.5,5.3,10.8,10.3,10.8
			c0.8,0,1.6,0,2.5-0.5c14-4.3,27.6-9.1,41.1-15.1c5.3-2.2,8.6-10.2,7-17.2C725.4,903.5,719.2,899.7,713.8,901.8z"/>
		<path class="st2" d="M860.7,808.7c-10.7,10.2-22.6,19.9-34.6,29.1c-4.9,3.8-6.6,12.4-3.7,18.8c2.9,6.5,9.5,8.6,14.4,4.8
			c12.3-9.1,24.7-19.4,36.2-30.7c4.9-4.3,5.8-12.9,2.5-18.8l0,0C872.2,805.5,865.6,804.4,860.7,808.7z"/>
		<path class="st2" d="M387.2,926.6c-13.6-3.2-27.1-7-40.3-11.3c-5.8-1.6-11.1,3.2-12.3,10.8c-0.8,7,2.1,13.5,7.4,15.6
			c13.6,4.3,27.6,8.1,41.5,11.3c0.4,0,1.2,0,1.6,0c4.9,0,9.5-4.8,10.3-11.3C396.7,935.2,393.4,928.2,387.2,926.6
			C387.7,927.1,387.7,927.1,387.2,926.6z"/>
		<path class="st2" d="M633.6,927.7c-13.6,3.2-27.1,5.9-40.7,7.5c-5.8,0.5-9.9,7-9.5,14.5c0.4,7,5.3,12.9,10.7,12.4h1.2
			c14-2.2,28-4.8,42-8.1c5.8-1.6,9.5-8.6,8.6-16.1l0,0C644.7,930.9,639.4,926.6,633.6,927.7z"/>
		<path class="st2" d="M22.8,564.4c5.8-1.1,9.9-7.5,9.5-15.1c-0.8-10.8-1.2-21.5-1.2-32.8c0-17.2,1.2-35,3.7-52.2
			c1.2-7.5-2.9-14.5-8.6-16.1c-5.7-1.6-11.1,3.8-12.3,11.3l0,0c-2.9,18.8-4.1,37.7-4.1,57c0,11.8,0.4,23.7,1.6,36.1
			c0.4,7,5.3,12.4,10.7,12.4C22,564.4,22.4,564.4,22.8,564.4z"/>
		<path class="st2" d="M551.8,939.5c-13.2,1.1-26.7,1.6-39.9,1.6h-1.2c-5.8-0.5-10.7,5.4-11.1,12.9s4.1,14,9.9,14.5
			c0.4,0,0.8,0,1.2,0h1.2c13.6,0,27.6-0.5,41.1-1.6c5.8-0.5,10.3-7,9.9-14.5C562.5,944.9,557.5,939.5,551.8,939.5L551.8,939.5z"/>
		<path class="st2" d="M982,646.2c-4.9-3.2-11.1-0.5-14,5.9l0,0c-5.8,15.6-12.8,30.7-20.6,45.2c-3.3,5.9-2.1,14.5,2.5,18.8l0,0
			c1.6,1.6,3.7,2.7,5.8,2.7c3.3,0,6.6-2.2,8.6-5.9c8.2-15.6,15.6-31.8,22.2-49C989.4,657.5,987.4,649.4,982,646.2z"/>
		<path class="st2" d="M688.8,122.1c13.6,4.8,26.7,10.2,39.5,15.6c5.3,2.2,11.1-1.6,13.2-8.6l0,0c2.1-7-0.8-15.1-6.6-17.2l0,0
			c-13.2-5.9-26.7-11.3-40.7-16.1c-5.3-2.2-11.1,2.2-12.8,9.7c0,0,0,0,0,0.5C680.1,112.9,683.4,119.9,688.8,122.1z"/>
		<path class="st2" d="M987,448.7c3.3,16.7,4.9,33.9,5.8,51.7c0.4,7.5,4.9,12.9,10.3,12.9h0.4c5.8-0.5,10.3-7,9.9-14.5
			c-0.8-18.8-2.9-37.7-6.2-56.5c-1.2-7.5-7-11.8-12.8-10.2C989,434.2,985.7,441.2,987,448.7L987,448.7z"/>
		<path class="st2" d="M525.9,92.5c14,0,27.6,1.1,41.1,2.7h0.8c5.8,0,10.3-6.5,10.3-14c0-7-4.1-12.9-9.5-13.5
			c-14-1.1-28-2.2-42.4-2.7c-5.8,0-10.3,5.9-10.7,13.5l0,0C515.6,86,520.1,92.5,525.9,92.5z"/>
		<path class="st2" d="M974.2,399.2c1.6,4.8,5.3,8.1,9.5,8.1c5.8,0,10.3-5.9,10.7-13.5c0-2.2-0.4-3.8-0.8-5.9
			c-5.8-17.2-12.3-33.9-20.2-50c-3.3-6.5-9.9-8.1-14.4-3.8c-4.5,3.8-5.8,11.8-3.3,17.8C962.7,367.5,968.9,383.1,974.2,399.2z"/>
		<path class="st2" d="M766.5,157c12.8,7,25.1,14.5,37.4,22.6c1.6,1.1,2.9,1.6,4.5,1.6c4.1,0,7.4-2.7,9.5-7.5
			c2.5-7,0.4-15.1-4.5-18.8c-12.3-8.6-25.5-16.1-38.7-23.7c-5.3-2.7-11.5,0.5-14,7C758.7,145.7,761.2,153.8,766.5,157z"/>
		<path class="st2" d="M1003,540.2c-5.8-1.1-10.7,4.3-11.5,11.3c0,0,0,0,0,0.5c-1.6,17.2-4.5,34.4-8.6,51.1
			c-1.6,7,1.2,14.5,6.6,16.7c0,0,0,0,0.4,0c0.8,0.5,2.1,0.5,3.3,0.5c4.5,0,8.6-3.8,9.9-9.7c4.5-18.3,7.4-36.6,9.5-55.4
			C1012.9,548.3,1008.8,541.8,1003,540.2z"/>
		<path class="st2" d="M31,422.3c1.2,0.5,2.5,0.5,3.7,1.1c4.5,0,8.2-3.8,9.9-9.1c4.5-16.7,10.3-32.3,16.9-47.4
			c2.9-6.5,1.2-15.1-4.1-18.3s-11.5-1.6-14,5.4c-7,16.7-13.2,33.9-18.1,51.7c-2.1,7,0.4,14.5,5.8,17.8C31,422.3,31,422.3,31,422.3z"
			/>
		<path class="st2" d="M904.3,271.1c9.9,12.4,18.9,25.3,28,38.7c2.1,3.2,4.9,4.8,8.2,4.8c2.5,0,4.9-1.1,6.6-3.2
			c4.5-4.8,4.9-13.5,1.6-18.8l0,0c-9-14.5-18.9-28-29.6-40.9c-4.1-5.4-10.7-4.8-14.8,0.5C899.8,257.1,899.8,265.7,904.3,271.1
			L904.3,271.1z"/>
		<path class="st2" d="M133.9,250.1c2.5,0,4.9-1.1,6.6-3.2c10.7-11.3,21.4-22.1,32.9-31.8c4.9-3.8,6.6-12.4,3.7-18.8
			c-2.9-6.5-9.5-8.6-14.4-4.8c-0.4,0-0.4,0.5-0.8,0.5c-11.9,10.8-23.4,21.5-34.6,33.4c-4.5,4.8-5.3,13.5-1.6,19.4
			C127.7,248,130.6,250.1,133.9,250.1z"/>
		<path class="st2" d="M359.7,113.4c0.8,0,1.6,0,2.5,0c13.2-3.8,26.7-7,40.7-10.2c5.8-1.6,9-9.1,7.8-16.7
			c-1.2-6.5-5.8-11.3-11.1-10.2c-14,2.7-28.4,6.5-41.5,10.2c-5.8,2.2-8.6,9.7-7.4,16.7C351.5,109.1,355.6,112.9,359.7,113.4
			L359.7,113.4z"/>
		<path class="st2" d="M885.8,214.6c-11.1-11.3-23-22.1-35.4-31.8c-4.9-3.8-11.5-2.2-14.4,4.3s-1.6,15.1,3.3,18.8
			c11.9,9.7,23,19.9,33.7,30.7c1.6,1.6,4.1,2.7,6.2,2.7c3.3,0,6.2-2.2,8.2-5.4C891.1,228.1,890.3,219.5,885.8,214.6L885.8,214.6z"/>
		<path class="st2" d="M203.4,189.3c1.6,0,3.7-0.5,5.3-1.6c11.9-8.6,23.9-16.7,36.6-24.2c5.3-2.7,7.8-10.8,5.8-17.8
			c-2.1-7-8.2-10.2-13.6-7.5c-0.4,0-0.4,0-0.8,0.5c-13.2,7.5-25.9,16.1-38.3,24.8c-4.9,3.8-7,11.8-4.1,18.3l0,0
			C196,186.6,199.7,189.3,203.4,189.3z"/>
		<path class="st2" d="M442.8,96.8h0.8c13.6-1.6,27.1-2.7,41.1-3.8c5.8-0.5,10.3-6.5,9.9-14s-4.9-13.5-10.7-12.9l0,0
			c-14.4,0.5-28.4,2.2-42.4,3.8c-5.8,0.5-9.9,7.5-9.5,15.1C432.5,91.4,437,96.8,442.8,96.8z"/>
		<path class="st2" d="M279.5,144.1c1.2,0,2.5,0,3.7-0.5c12.8-5.9,25.9-11.3,39.1-16.7c5.3-2.2,8.6-9.7,7-17.2
			c-1.6-7-7.4-11.3-13.2-9.1l0,0c-13.6,5.4-27.6,10.8-40.3,17.2c-5.3,2.7-8.2,10.2-6.2,17.2l0,0
			C271.2,140.4,275.4,144.1,279.5,144.1z"/>
		<path class="st2" d="M608.1,101.1c14,2.7,27.1,5.4,40.7,9.1c0.8,0,1.2,0,2.1,0c4.9,0,9.5-4.8,10.3-10.8c1.2-7.5-2.5-14.5-8.2-16.1
			c-13.6-3.8-27.6-6.5-42-9.1c-5.8-1.1-11.1,4.3-11.9,11.8C598.3,92.5,602.4,100,608.1,101.1z"/>
		<path class="st3" d="M802.3,833.5c7.8-2.2,15.2-7,21-14.5c4.9-5.4,8.6-12.4,11.1-19.9c2.9-11.3,2.1-23.7-1.6-34.4
			c-0.8-2.7-2.1-5.4-3.3-8.1c4.1-10.8,4.5-23.7,0.8-34.4c-3.3-9.7-8.2-17.8-14.4-24.2c-7.8-7.5-18.1-10.2-27.6-8.1
			c-12.3,1.6-23.9,14.5-30.9,26.9c-1.2,2.7-2.5,5.9-3.3,9.1l-28,5.9l-61.7,13.5l-28,5.9c-1.6-2.7-3.7-4.8-6.2-7
			c-10.3-10.2-23.4-14.5-36.2-11.8c-9.9,2.2-18.1,9.7-23.9,19.9c-4.5,8.6-7,18.3-7.4,28.5c-0.8,11.8,2.9,24.2,9.5,32.3
			c-0.4,2.7-0.8,5.9-0.8,9.1c-0.8,11.8,1.6,23.7,7.4,33.4c4.5,5.9,9.5,10.8,15.6,14c7.4,4.3,15.6,5.9,23.4,4.3
			c18.5-3.2,30-23.1,33.3-45.7v-0.5l22.6-4.8l61.7-13.5l22.6-4.8v0.5C767.7,824.3,784.2,838.3,802.3,833.5z"/>
		<text transform="matrix(0.7488 -0.2626 0.2007 0.9796 243.7725 460.8284)" class="st4 st5 st6">Pet</text>
		<text transform="matrix(0.7488 -0.2626 0.2007 0.9796 51.2686 906.6267)" class="st4 st5 st7 st8">LaughZ</text>
	</g>
</g>
</svg>
